<svg xmlns="http://www.w3.org/2000/svg" width="198" height="57.682" viewBox="0 0 198 57.682">
    <defs>
        <style>
            .cls-1{fill:#a6a6a6}.cls-2{fill:#fff}
        </style>
    </defs>
    <g id="app_store" data-name="app store" transform="translate(-899 -2970)">
        <path id="Tracé_166" d="M173.6 53.333H6.267A6.259 6.259 0 0 1 0 47.067v-40.8A6.259 6.259 0 0 1 6.267 0H173.6a6.374 6.374 0 0 1 6.4 6.267v40.666a6.4 6.4 0 0 1-6.4 6.4z" class="cls-1" data-name="Tracé 166" transform="translate(899 2970)"/>
        <path id="Tracé_167" d="M197.7 51.763a5.616 5.616 0 0 1-5.619 5.619H6.519A5.616 5.616 0 0 1 .9 51.763V6.519A5.616 5.616 0 0 1 6.519.9h185.562a5.616 5.616 0 0 1 5.619 5.619v45.244z" data-name="Tracé 167" transform="translate(899.3 2970.3)"/>
        <g id="Groupe_17" data-name="Groupe 17" transform="translate(916.071 2978.267)">
            <g id="Groupe_16" data-name="Groupe 16">
                <path id="Tracé_168" d="M38.01 23.193a8.552 8.552 0 0 1 4.081-7.141 8.559 8.559 0 0 0-6.85-3.643c-2.915-.291-5.684 1.749-7.141 1.749s-3.789-1.749-6.121-1.6a9.037 9.037 0 0 0-7.579 4.66c-3.352 5.684-.874 14.136 2.332 18.8 1.6 2.332 3.5 4.809 5.829 4.664s3.206-1.457 6.121-1.457c2.769 0 3.643 1.457 6.121 1.457s4.081-2.332 5.684-4.518a16.7 16.7 0 0 0 2.623-5.246c-.145-.292-4.954-2.187-5.1-7.725z" class="cls-2" data-name="Tracé 168" transform="translate(-12.804 -3.373)"/>
                <path id="Tracé_169" d="M28.654 12.175A8 8 0 0 0 30.548 6.2a9.588 9.588 0 0 0-5.538 2.769 7.714 7.714 0 0 0-1.895 5.684 6.271 6.271 0 0 0 5.539-2.478z" class="cls-2" data-name="Tracé 169" transform="translate(-8.11 -6.2)"/>
            </g>
        </g>
        <g id="Groupe_18" data-name="Groupe 18" transform="translate(959.204 2995.755)">
            <path id="Tracé_170" d="M58.722 37.583H55.37L53.622 31.9h-6.267l-1.749 5.684H42.4L48.667 18.2h3.789zm-5.538-8.015l-1.6-5.1c-.146-.583-.437-1.749-1.02-3.643-.146.874-.437 2.04-.874 3.643l-1.749 5.1z" class="cls-2" data-name="Tracé 170" transform="translate(-42.4 -18.2)"/>
            <path id="Tracé_171" d="M68.862 28.841a8.133 8.133 0 0 1-1.895 5.684 5.986 5.986 0 0 1-4.226 1.895 4.151 4.151 0 0 1-3.935-2.04v7.433h-3.06V26.655c0-1.457 0-3.06-.146-4.664h2.769l.146 2.186a5.26 5.26 0 0 1 4.663-2.477 4.97 4.97 0 0 1 4.081 1.895 8.338 8.338 0 0 1 1.603 5.246zm-3.206.146a6.037 6.037 0 0 0-.874-3.352 3.385 3.385 0 0 0-2.769-1.312 3.482 3.482 0 0 0-2.04.729 3.609 3.609 0 0 0-1.166 2.04 2.564 2.564 0 0 0-.146.874V30.3a4.069 4.069 0 0 0 .874 2.623 3 3 0 0 0 2.477 1.02 3.385 3.385 0 0 0 2.769-1.312 7.1 7.1 0 0 0 .875-3.644z" class="cls-2" data-name="Tracé 171" transform="translate(-36.363 -16.599)"/>
            <path id="Tracé_172" d="M79.862 28.841a8.133 8.133 0 0 1-1.895 5.684 5.986 5.986 0 0 1-4.226 1.895 4.151 4.151 0 0 1-3.935-2.04v7.433h-3.06V26.655c0-1.457 0-3.06-.146-4.664h2.769l.146 2.186a5.26 5.26 0 0 1 4.663-2.477 4.97 4.97 0 0 1 4.081 1.895 8.338 8.338 0 0 1 1.603 5.246zm-3.206.146a6.037 6.037 0 0 0-.874-3.352 3.385 3.385 0 0 0-2.769-1.312 3.482 3.482 0 0 0-2.04.729 3.609 3.609 0 0 0-1.166 2.04 2.564 2.564 0 0 0-.146.874V30.3a4.069 4.069 0 0 0 .874 2.623 3 3 0 0 0 2.477 1.02 3.385 3.385 0 0 0 2.769-1.312 7.1 7.1 0 0 0 .875-3.644z" class="cls-2" data-name="Tracé 172" transform="translate(-31.332 -16.599)"/>
            <path id="Tracé_173" d="M91.75 32.191a5.292 5.292 0 0 1-1.75 4.08 7.606 7.606 0 0 1-5.246 1.749 9.573 9.573 0 0 1-4.954-1.166l.729-2.623a8.182 8.182 0 0 0 4.518 1.312 5.184 5.184 0 0 0 2.769-.729 2.848 2.848 0 0 0 1.02-2.186 2.877 2.877 0 0 0-.874-2.04 7.3 7.3 0 0 0-2.623-1.457c-3.352-1.312-5.1-3.06-5.1-5.538a4.99 4.99 0 0 1 1.749-3.935A7.033 7.033 0 0 1 86.8 18.2a9.733 9.733 0 0 1 4.372.874l-.874 2.332a7.9 7.9 0 0 0-3.643-.874 3.8 3.8 0 0 0-2.623.874 1.962 1.962 0 0 0-.729 1.749 2.35 2.35 0 0 0 .874 1.895 9.454 9.454 0 0 0 2.769 1.457 10.476 10.476 0 0 1 3.643 2.332 4.509 4.509 0 0 1 1.161 3.352z" class="cls-2" data-name="Tracé 173" transform="translate(-25.295 -18.2)"/>
            <path id="Tracé_174" d="M97.8 25.329h-3.354v6.85q0 2.623 1.749 2.623a3.235 3.235 0 0 0 1.312-.146l.146 2.332a6.068 6.068 0 0 1-2.477.291 4.069 4.069 0 0 1-2.915-1.166c-.729-.729-1.02-2.04-1.02-3.789v-7H89.2V23h2.04v-2.626l3.06-.874V23h3.352a12.537 12.537 0 0 1 .148 2.329z" class="cls-2" data-name="Tracé 174" transform="translate(-20.996 -17.605)"/>
            <path id="Tracé_175" d="M110.045 28.841a7.047 7.047 0 0 1-1.895 5.246 6.615 6.615 0 0 1-5.1 2.186 6.7 6.7 0 0 1-4.955-2.04 6.926 6.926 0 0 1-1.895-5.1 7.632 7.632 0 0 1 1.895-5.392 6.8 6.8 0 0 1 5.1-2.04 6.7 6.7 0 0 1 4.955 2.04 6.926 6.926 0 0 1 1.895 5.1zm-3.206.146a6.388 6.388 0 0 0-.874-3.352 2.866 2.866 0 0 0-2.769-1.6 3.36 3.36 0 0 0-2.915 1.6 6.037 6.037 0 0 0-.874 3.352 6.388 6.388 0 0 0 .874 3.352 3.127 3.127 0 0 0 5.538-.146 4.71 4.71 0 0 0 1.02-3.206z" class="cls-2" data-name="Tracé 175" transform="translate(-17.795 -16.599)"/>
            <path id="Tracé_176" d="M114.932 24.76c-.291 0-.583-.146-1.02-.146a2.7 2.7 0 0 0-2.477 1.312 4.155 4.155 0 0 0-.729 2.769v7.287h-3.06v-9.618a40.986 40.986 0 0 0-.146-4.372h2.769l.146 2.623h.146a4.765 4.765 0 0 1 1.6-2.186 4.337 4.337 0 0 1 2.186-.729h.729a22.563 22.563 0 0 0-.144 3.06z" class="cls-2" data-name="Tracé 176" transform="translate(-12.627 -16.599)"/>
            <path id="Tracé_177" d="M126.133 28.312a4.493 4.493 0 0 1-.146 1.457h-9.327a4.069 4.069 0 0 0 1.312 3.206 4.81 4.81 0 0 0 3.06 1.02 10.947 10.947 0 0 0 3.789-.729l.437 2.186a11.576 11.576 0 0 1-4.664.874 6.5 6.5 0 0 1-5.1-1.895 7.3 7.3 0 0 1-1.895-5.1 7.865 7.865 0 0 1 1.749-5.246A5.918 5.918 0 0 1 120.3 21.9a5.1 5.1 0 0 1 4.518 2.186 6.117 6.117 0 0 1 1.315 4.226zm-3.06-.874a3.973 3.973 0 0 0-.583-2.332 2.7 2.7 0 0 0-2.477-1.312 2.863 2.863 0 0 0-2.477 1.312 3.677 3.677 0 0 0-.874 2.477l6.412-.146z" class="cls-2" data-name="Tracé 177" transform="translate(-9.837 -16.508)"/>
        </g>
        <g id="Groupe_20" data-name="Groupe 20" transform="translate(960.953 2978.85)">
            <g id="Groupe_19" data-name="Groupe 19">
                <path id="Tracé_178" d="M51.47 11.418a4.936 4.936 0 0 1-1.6 3.935 6.784 6.784 0 0 1-4.081 1.166 9.65 9.65 0 0 1-2.186-.146V7.046a15.839 15.839 0 0 1 2.62-.146 5.862 5.862 0 0 1 3.789 1.02 4.32 4.32 0 0 1 1.458 3.498zm-1.6 0a3.8 3.8 0 0 0-.874-2.623 3.563 3.563 0 0 0-2.623-.874 2.841 2.841 0 0 0-1.166.146v7.141h1.02a3.628 3.628 0 0 0 2.769-1.02 3.37 3.37 0 0 0 .871-2.77z" class="cls-2" data-name="Tracé 178" transform="translate(-43.6 -6.463)"/>
                <path id="Tracé_179" d="M57 12.1a4.069 4.069 0 0 1-.874 2.623 3 3 0 0 1-2.477 1.02 3.2 3.2 0 0 1-2.477-1.02 3.677 3.677 0 0 1-.874-2.477 4.069 4.069 0 0 1 .874-2.623 3 3 0 0 1 2.48-1.023 3.2 3.2 0 0 1 2.477 1.02A3.677 3.677 0 0 1 57 12.1zm-1.6.146a2.938 2.938 0 0 0-.437-1.6 1.4 1.4 0 0 0-1.312-.874 1.774 1.774 0 0 0-1.457.874 3.158 3.158 0 0 0 0 3.206 1.463 1.463 0 0 0 1.457.874 1.4 1.4 0 0 0 1.312-.874 2.938 2.938 0 0 0 .437-1.609z" class="cls-2" data-name="Tracé 179" transform="translate(-40.536 -5.685)"/>
                <path id="Tracé_180" d="M65.956 8.746L63.77 15.6h-1.458l-.874-2.915a12.142 12.142 0 0 1-.583-2.186 12.14 12.14 0 0 1-.583 2.186L59.4 15.6h-1.46L55.9 8.746h1.6l.729 3.206.437 2.186c.146-.583.291-1.312.583-2.186L60.272 8.6h1.312l.874 3.206a13.646 13.646 0 0 1 .583 2.332c.146-.729.291-1.457.437-2.332l.875-3.206 1.6.146z" class="cls-2" data-name="Tracé 180" transform="translate(-37.975 -5.685)"/>
                <path id="Tracé_181" d="M70.029 15.641h-1.457v-3.935q0-1.749-1.312-1.749a1.5 1.5 0 0 0-1.6 1.6v4.081H64.2V8.791h1.166v1.02a3.864 3.864 0 0 1 .729-.874 2.351 2.351 0 0 1 1.311-.437 2.192 2.192 0 0 1 1.6.583 2.827 2.827 0 0 1 .729 2.332v4.226z" class="cls-2" data-name="Tracé 181" transform="translate(-34.179 -5.731)"/>
                <path id="Tracé_182" d="M71.557 16.51H70.1V6.6h1.457z" class="cls-2" data-name="Tracé 182" transform="translate(-31.48 -6.6)"/>
                <path id="Tracé_183" d="M79.4 12.1a4.069 4.069 0 0 1-.874 2.623 3 3 0 0 1-2.477 1.02 3.2 3.2 0 0 1-2.477-1.02 3.677 3.677 0 0 1-.874-2.477 4.069 4.069 0 0 1 .874-2.623 3 3 0 0 1 2.48-1.023 3.2 3.2 0 0 1 2.477 1.02 3.677 3.677 0 0 1 .871 2.48zm-1.6.146a2.938 2.938 0 0 0-.437-1.6 1.4 1.4 0 0 0-1.312-.874 1.774 1.774 0 0 0-1.457.874 3.158 3.158 0 0 0 0 3.206 1.463 1.463 0 0 0 1.457.874 1.4 1.4 0 0 0 1.312-.874 2.938 2.938 0 0 0 .437-1.609z" class="cls-2" data-name="Tracé 183" transform="translate(-30.291 -5.685)"/>
                <path id="Tracé_184" d="M84.084 15.6h-1.312l-.146-.729a2.446 2.446 0 0 1-2.04.874 2.192 2.192 0 0 1-1.6-.583A2.589 2.589 0 0 1 78.4 13.7a1.977 1.977 0 0 1 1.02-1.895 4.577 4.577 0 0 1 2.915-.583v-.146c0-.874-.437-1.312-1.457-1.312a3.108 3.108 0 0 0-1.749.437l-.146-1.02a3.973 3.973 0 0 1 2.332-.581c1.749 0 2.623.874 2.623 2.769v2.477a9.942 9.942 0 0 1 .146 1.754zm-1.6-2.332v-1.02c-1.749 0-2.477.437-2.477 1.312a2.071 2.071 0 0 0 .291.874 1.113 1.113 0 0 0 .729.291 2.071 2.071 0 0 0 .874-.291 1.338 1.338 0 0 0 .583-.874z" class="cls-2" data-name="Tracé 184" transform="translate(-27.684 -5.685)"/>
                <path id="Tracé_185" d="M90.312 16.51H89v-1.166a2.26 2.26 0 0 1-2.186 1.312 2.363 2.363 0 0 1-2.04-1.02 3.677 3.677 0 0 1-.874-2.477 4.2 4.2 0 0 1 .874-2.769 3.1 3.1 0 0 1 2.186-1.02 2 2 0 0 1 1.895.874V6.6h1.457v8.161a7.022 7.022 0 0 0 0 1.749zm-1.6-2.915v-1.6a1.338 1.338 0 0 0-.583-.874 1.323 1.323 0 0 0-1.02-.437 1.53 1.53 0 0 0-1.312.729 3.108 3.108 0 0 0-.437 1.749 2.618 2.618 0 0 0 .437 1.6 1.53 1.53 0 0 0 1.312.729 1.325 1.325 0 0 0 1.166-.583 1.781 1.781 0 0 0 .434-1.308z" class="cls-2" data-name="Tracé 185" transform="translate(-25.169 -6.6)"/>
                <path id="Tracé_186" d="M99.3 12.1a4.069 4.069 0 0 1-.874 2.623 3 3 0 0 1-2.477 1.02 3.2 3.2 0 0 1-2.477-1.02 3.677 3.677 0 0 1-.874-2.477 4.069 4.069 0 0 1 .874-2.623 3 3 0 0 1 2.48-1.023 3.2 3.2 0 0 1 2.477 1.02 3.677 3.677 0 0 1 .871 2.48zm-1.457.146a2.938 2.938 0 0 0-.437-1.6 1.4 1.4 0 0 0-1.306-.88 1.774 1.774 0 0 0-1.457.874 3.158 3.158 0 0 0 0 3.206 1.463 1.463 0 0 0 1.457.874 1.4 1.4 0 0 0 1.312-.874 2.938 2.938 0 0 0 .434-1.603z" class="cls-2" data-name="Tracé 186" transform="translate(-21.19 -5.685)"/>
                <path id="Tracé_187" d="M104.775 15.641h-1.457v-3.935c0-1.166-.437-1.749-1.457-1.749a1.5 1.5 0 0 0-1.6 1.6v4.081H98.8V8.791h1.312v1.02a3.864 3.864 0 0 1 .729-.874A2.462 2.462 0 0 1 102.3 8.5a2.192 2.192 0 0 1 1.6.583 2.827 2.827 0 0 1 .729 2.332v4.226z" class="cls-2" data-name="Tracé 187" transform="translate(-18.354 -5.731)"/>
                <path id="Tracé_188" d="M111.226 10.369h-1.749v3.352q0 1.312.874 1.312h.729V16.2a2.841 2.841 0 0 1-1.166.146 1.871 1.871 0 0 1-1.457-.583 3.307 3.307 0 0 1-.437-1.895v-3.5H107V9.2h1.02V8.037l1.457-.437v1.749h1.749v1.02z" class="cls-2" data-name="Tracé 188" transform="translate(-14.604 -6.143)"/>
                <path id="Tracé_189" d="M117.284 16.51h-1.457v-3.935c0-1.166-.437-1.895-1.312-1.895a1.4 1.4 0 0 0-1.457 1.02v4.664H111.6V6.6h1.457v4.081a2.326 2.326 0 0 1 2.04-1.166 2.192 2.192 0 0 1 1.6.583 3.011 3.011 0 0 1 .729 2.332 38.187 38.187 0 0 0-.142 4.08z" class="cls-2" data-name="Tracé 189" transform="translate(-12.5 -6.6)"/>
                <path id="Tracé_190" d="M123.075 11.906v.729h-4.664a2.088 2.088 0 0 0 .729 1.6 2.462 2.462 0 0 0 1.457.437 7.384 7.384 0 0 0 1.895-.291l.291 1.02a5.549 5.549 0 0 1-2.332.437 3.428 3.428 0 0 1-2.477-.874 3.428 3.428 0 0 1-.874-2.477 4.069 4.069 0 0 1 .874-2.623 3.042 3.042 0 0 1 2.332-1.164 2.4 2.4 0 0 1 2.186 1.166 2.849 2.849 0 0 1 .583 2.04zm-1.457-.437a2.746 2.746 0 0 0-.291-1.166 1.457 1.457 0 0 0-2.332 0 1.655 1.655 0 0 0-.437 1.166z" class="cls-2" data-name="Tracé 190" transform="translate(-9.985 -5.64)"/>
            </g>
        </g>
    </g>
</svg>
