<svg xmlns="http://www.w3.org/2000/svg" width="384" height="298.943" viewBox="0 0 384 298.943">
    <defs>
        <style>
            .cls-1,.cls-16{fill:#f8a557}.cls-1,.cls-6{opacity:.1}.cls-2{fill:#3a3768}.cls-3{fill:#d48a9b}.cls-4{opacity:.05}.cls-5{fill:#efc6cd}.cls-7{fill:#fff}.cls-8{fill:#d3dae1}.cls-9{fill:#636992}.cls-10{fill:#ffd6d6}.cls-11{fill:#dce6f2}.cls-12{fill:#565988}.cls-13{fill:#f8bdc5}.cls-14{fill:#353045}.cls-15{opacity:.15}.cls-17{fill:#ffd037}.cls-18{fill:#65617d}.cls-19{fill:#9d9cb5}.cls-20{fill:#4b4770}.cls-21{fill:#d4dfec}.cls-22{fill:#575988}.cls-23{fill:#dedff7}.cls-24{fill:#eb6475}.cls-25{opacity:.3}
        </style>
    </defs>
    <g id="illu03" transform="translate(-899 -452)">
        <path id="Tracé_1220" d="M405.806 84.463l-.218.982A104.811 104.811 0 0 1 393.51 116.8c-.182.327-.4.655-.582.982a91.406 91.406 0 0 1-13.606 17.208 41.737 41.737 0 0 1-9.786 7.531c-5.239 2.729-11.387 3.856-17.426 4.766-6.257.946-12.624 1.746-18.954 2.583-2.256.291-4.475.618-6.73.946-6.112.91-12.187 1.965-18.117 3.347a104.738 104.738 0 0 0-21.139 7.137c-.546.255-1.055.509-1.6.764-.509.255-1.055.546-1.564.8s-1.019.546-1.528.8c-.255.146-.509.291-.8.437s-.509.291-.764.437c-.764.437-1.492.873-2.256 1.273h-.036c-.473.291-.982.582-1.455.873-2.729 1.673-5.421 3.42-8.113 5.166l-1.673 1.091-2.619 1.71-1.528.982c-.364.255-.728.473-1.128.728-1.892 1.2-3.82 2.365-5.821 3.493-.473.255-.946.546-1.419.8a82.27 82.27 0 0 1-12.515 5.639l-.073.036a60.341 60.341 0 0 1-6.658 1.892c-1.31.291-2.619.509-3.929.691a41.542 41.542 0 0 1-10.623.146c-6.949-.8-13.424-3.456-20.373-4.366-14.261-1.819-28.158 4.038-41.582 8.622a243.012 243.012 0 0 1-9.968 3.165c-2.219.655-4.475 1.273-6.73 1.892a253.617 253.617 0 0 1-42.092 7.385 117.2 117.2 0 0 1-17.863.4 67.249 67.249 0 0 1-6.694-.728c-7.531-1.164-14.552-3.6-20.227-8.076a38.946 38.946 0 0 1-10.478-13.462 58.957 58.957 0 0 1-5.421-16.19 43.946 43.946 0 0 1-.364-2.328 48.878 48.878 0 0 1-.4-3.965 57.411 57.411 0 0 1 2.51-21.064c2.4-7.6 6.4-14.916 8.149-22.592l.218-.982a28.483 28.483 0 0 0 .546-3.529c.91-9.422-2.547-18.59-5.239-27.831-.109-.327-.182-.655-.291-.982-.291-1.019-.582-2.037-.837-3.056-2.51-9.75-3.2-20.155-.982-29.9l.218-.982a43.61 43.61 0 0 1 8.223-16.849c4.184-5.239 9.677-9.6 15.534-13.424 2.838-1.855 5.821-3.6 8.84-5.239 2.183-1.164 4.4-2.256 6.694-3.311A132.555 132.555 0 0 1 142.45.1c1.091.036 2.183.109 3.274.182s2.292.182 3.42.291c13.352 1.31 26.3 4.438 39.181 7.822 4.329 1.164 8.622 2.328 12.951 3.492 1.928.509 3.82 1.019 5.748 1.528 9.386 2.437 18.918 4.62 28.558 6.257 2.219.4 4.475.728 6.694 1.055a195.06 195.06 0 0 0 23.465 2c3.056.073 6.112.036 9.168-.073 1.528-.073 3.092-.146 4.62-.255 15.971-1.128 31.36-4.875 46.821-8.4a368.897 368.897 0 0 1 6.73-1.492q4.42-.982 8.84-1.855c18.372-3.6 34.779-1.528 51.878 5.93 3.893 1.71 7.749 3.747 10.15 6.912s2.983 7.058 3.42 10.841c.618 5.348 1.055 10.8 1.2 16.262a8.859 8.859 0 0 0 .036.982 146.689 146.689 0 0 1-2.798 32.884z" class="cls-1" data-name="Tracé 1220" transform="translate(874.349 452.019)"/>
        <path id="Tracé_1221" d="M291.209 117.035h-1.2v.982h1.346zm-13.643 0c-.036.291-.073.546-.109.837v.146h10.4v-.073l.728-.909zm-27.867 0v-31.36h11.969a3.83 3.83 0 0 0-.4-.255l-.182-.109-.218-.146c-.146-.073-.255-.146-.4-.218a2.641 2.641 0 0 1-.327-.182l-.073-.036h-10.332v-1.746l-.291.109-.291.146h-.036l-.073.036-.182.109-.182.109-.546.327-.182.109-.364.218c-.473.327-.946.655-1.419.946-.109.073-.255.146-.364.218-.255.146-.509.291-.8.437a1.09 1.09 0 0 1-.364.146l-.182.073-.182.073a8.619 8.619 0 0 1-1.31.327v30.668h-17.934c0 .036.036.073.036.109.109.291.182.582.291.873h17.644V151.6h.618l.582.036.91.109.437.036.473.036h.073l.8.109.182.036.4.036.546.073 1.346-.073.182.036c.073 0 .146.036.218.036v-34.089h27.758v-.146c.036-.255.073-.546.109-.8V117zm41.51 0h-1.2v.982h1.346zm-14.37 0l-.109.982h11.605l.8-.982zm-27.14 0v-31.36h11.969a3.83 3.83 0 0 0-.4-.255l-.182-.109-.218-.146c-.146-.073-.255-.146-.4-.218a2.641 2.641 0 0 1-.327-.182l-.073-.036H249.7v-1.746l-.291.109-.291.146h-.036l-.073.036-.182.109-.182.109-.546.327-.182.109-.364.218c-.473.327-.946.655-1.419.946-.109.073-.255.146-.364.218-.255.146-.509.291-.8.437a1.09 1.09 0 0 1-.364.146l-.182.073-.182.073a8.619 8.619 0 0 1-1.31.327v30.668H225c0 .036.036.073.036.109.109.291.182.582.291.873h17.681V151.6h.618l.582.036.91.109.437.036.473.036h.073l.8.109.182.036.4.036.546.073 1.346-.073.182.036c.073 0 .146.036.218.036v-34.089H276.8l.109-.982H249.7zm90.768-65.266h75.489a8.866 8.866 0 0 0-.036-.982h-75.452V12.733c-2.256.473-4.475.982-6.73 1.492v36.561h-82.074l-.218-.182.327-.291 30.527-27.43a153.99 153.99 0 0 1-9.168.073L249.663 44.02V20.991c-2.256-.327-4.475-.655-6.694-1.055V43l-34.306-30.85a6399.243 6399.243 0 0 0-12.951-3.492l46.639 41.91-.218.182h-85.567V.873c-1.128-.109-2.292-.182-3.42-.291-1.091-.073-2.182-.146-3.274-.182v50.386H89.845V11.969c-2.256 1.055-4.511 2.146-6.694 3.311v35.506H50.518l-.218.982h32.815v32.96h-31c.109.327.182.655.291.982h30.745v31.323H57.1l-.218.982h26.23v87.64c2.183.327 4.438.582 6.694.728v-88.366H149.8V198.6a453.919 453.919 0 0 0 6.73-1.892v-78.69h86.476v70.4a53.309 53.309 0 0 0 6.658-1.892l.073-.036v-68.473h84.073v33.033c2.219-.327 4.475-.655 6.73-.946v-32.087h59.773c.182-.327.4-.655.582-.982h-60.427v-31.36H412.9l.218-.982h-72.65zm-250.623 0h59.991v32.96h-59.99zm0 65.266v-31.36h59.991v31.36zm66.721-65.266h86.439v32.96h-86.438zm0 65.266v-31.36h86.439v31.36zm177.208 0H249.7v-31.36h84.075zm0-32.306H249.7V52.642l1.164-.873h82.91zm-56.207 32.306c-.036.291-.073.546-.109.837v.146h10.4v-.073l.728-.909zm13.643 0h-1.2v.982h1.346zm-41.51 0v-31.36h11.969a3.83 3.83 0 0 0-.4-.255l-.182-.109-.218-.146c-.146-.073-.255-.146-.4-.218a2.641 2.641 0 0 1-.327-.182l-.073-.036h-10.332v-1.746l-.291.109-.291.146h-.036l-.073.036-.182.109-.182.109-.546.327-.182.109-.364.218c-.473.327-.946.655-1.419.946-.109.073-.255.146-.364.218-.255.146-.509.291-.8.437a1.09 1.09 0 0 1-.364.146l-.182.073-.182.073a8.619 8.619 0 0 1-1.31.327v30.668h-17.934c0 .036.036.073.036.109.109.291.182.582.291.873h17.644V151.6h.618l.582.036.91.109.437.036.473.036h.073l.8.109.182.036.4.036.546.073 1.346-.073.182.036c.073 0 .146.036.218.036v-34.089h27.758v-.146c.036-.255.073-.546.109-.8V117z" class="cls-1" data-name="Tracé 1221" transform="translate(866.999 451.752)"/>
        <path id="Tracé_1222" d="M234.419 75.637h.509a1.1 1.1 0 0 1-.655-.837c0-.655 1.019-1.2 2.219-1.2h15.571c1.237 0 2.219.546 2.219 1.2 0 .655-.982 1.2-2.219 1.2h-.509a1.1 1.1 0 0 1 .655.837c0 .582-.728 1.055-1.71 1.164h4.475c1.237 0 2.219.546 2.219 1.2s-1.019 1.2-2.219 1.2H239.4c-1.237 0-2.219-.546-2.219-1.2 0-.582.728-1.055 1.71-1.164h-4.475c-1.237 0-2.219-.546-2.219-1.2s.985-1.2 2.222-1.2z" class="cls-1" data-name="Tracé 1222" transform="translate(751.275 405.183)"/>
        <path id="Tracé_1223" d="M697.819 107.437h.509a.992.992 0 0 1-.618-.837c0-.655.982-1.2 2.219-1.2H715.5c1.237 0 2.219.546 2.219 1.2 0 .655-1.019 1.2-2.219 1.2h-.509a.992.992 0 0 1 .619.837c0 .582-.728 1.055-1.71 1.164h4.475c1.237 0 2.219.546 2.219 1.2s-.982 1.2-2.219 1.2H702.8c-1.237 0-2.219-.546-2.219-1.2 0-.582.728-1.055 1.71-1.164h-4.475c-1.2 0-2.219-.546-2.219-1.2s1.022-1.2 2.222-1.2z" class="cls-1" data-name="Tracé 1223" transform="translate(456.46 384.952)"/>
        <path id="Tracé_1224" d="M168.719 243.337h.509a.992.992 0 0 1-.618-.837c0-.655 1.019-1.2 2.219-1.2H186.4c1.237 0 2.219.546 2.219 1.2 0 .655-1.019 1.2-2.219 1.2h-.509a.992.992 0 0 1 .618.837c0 .582-.728 1.055-1.71 1.164h4.475c1.237 0 2.219.546 2.219 1.2s-1.019 1.2-2.219 1.2H173.74c-1.237 0-2.219-.546-2.219-1.2 0-.582.728-1.055 1.71-1.164h-4.511c-1.237 0-2.219-.546-2.219-1.2s1.018-1.2 2.218-1.2z" class="cls-1" data-name="Tracé 1224" transform="translate(793.073 298.492)"/>
        <ellipse id="Ellipse_142" cx="23.647" cy="77.781" class="cls-1" data-name="Ellipse 142" rx="23.647" ry="77.781" transform="rotate(-78.5 954.941 -340.46)"/>
        <path id="Tracé_1225" d="M744.2 345.591s4.147-20.3 19.936-18.408c0 0 10.914.764 13.17 7.895v15.789z" class="cls-2" data-name="Tracé 1225" transform="translate(425.541 243.933)"/>
        <path id="Tracé_1226" d="M704.454 378.342L563.845 366.7l-18.045 3.747 1.128 25.211 1.2.146 1.419 37.835 137.99 24.811 14.663-12.405v-41.037l1.892-1.091z" class="cls-3" data-name="Tracé 1226" transform="translate(551.763 218.713)"/>
        <path id="Tracé_1227" d="M954.825 398.7l-.4 25.575-15.207 7.131-.218-26.667z" class="cls-4" data-name="Tracé 1227" transform="translate(301.609 198.354)"/>
        <path id="Tracé_1228" d="M950.379 472.1l.218 40.237-14.7 12.406.946-46.639z" class="cls-4" data-name="Tracé 1228" transform="translate(303.582 151.658)"/>
        <path id="Tracé_1229" d="M552.609 448.573l140.427 17.135.073-3.238L552.5 447.3z" class="cls-4" data-name="Tracé 1229" transform="translate(547.5 167.435)"/>
        <path id="Tracé_1230" d="M951.4 473.592V472.1l-13.9 6.148v3.238z" class="cls-4" data-name="Tracé 1230" transform="translate(302.564 151.658)"/>
        <path id="Tracé_1231" d="M545.2 370.447l18.081-3.747 140.609 11.642-15.79 6.039z" class="cls-5" data-name="Tracé 1231" transform="translate(552.145 218.713)"/>
        <path id="Tracé_1232" d="M922.132 400.7l6.912.473-11.423 3.42-5.821-.437z" class="cls-6" data-name="Tracé 1232" transform="translate(318.914 197.082)"/>
        <path id="Tracé_1233" d="M922.132 399.9l6.912.437-11.423 3.42-5.821-.4z" class="cls-7" data-name="Tracé 1233" transform="translate(318.914 197.591)"/>
        <path id="Tracé_1234" d="M938 401.947c.291-.109.546.109.837.146.182.036.327 0 .509.036.327.036.655.255.982.146" class="cls-8" data-name="Tracé 1234" transform="translate(302.246 196.308)"/>
        <path id="Tracé_1235" d="M937 402.547c.255-.109.546.109.837.146.182.036.327 0 .509.036.328.036.655.291.982.146" class="cls-8" data-name="Tracé 1235" transform="translate(302.882 195.926)"/>
        <path id="Tracé_1236" d="M934.7 403.647c.291-.109.546.109.837.146.182.036.327 0 .509.036.327.036.691.291.982.146" class="cls-8" data-name="Tracé 1236" transform="translate(304.345 195.226)"/>
        <path id="Tracé_1237" d="M840.132 391.4l6.912.437-11.423 3.42-5.821-.4z" class="cls-6" data-name="Tracé 1237" transform="translate(371.082 202.999)"/>
        <path id="Tracé_1238" d="M840.132 390.6l6.912.437-11.423 3.42-5.821-.4z" class="cls-7" data-name="Tracé 1238" transform="translate(371.082 203.508)"/>
        <path id="Tracé_1239" d="M856 392.647c.291-.109.546.109.837.145.182.036.327 0 .509.036.327.036.655.291.982.146" class="cls-8" data-name="Tracé 1239" transform="translate(354.414 202.225)"/>
        <path id="Tracé_1240" d="M855 393.247c.255-.109.546.109.837.146.182.036.327 0 .509.036.327.036.655.291.982.146" class="cls-8" data-name="Tracé 1240" transform="translate(355.05 201.843)"/>
        <path id="Tracé_1241" d="M852.7 394.347c.291-.109.546.109.837.146.182.036.327 0 .509.036.327.036.691.291.982.146" class="cls-8" data-name="Tracé 1241" transform="translate(356.513 201.143)"/>
        <path id="Tracé_1242" d="M879.468 396l6.876.473-11.423 3.42-5.821-.437z" class="cls-6" data-name="Tracé 1242" transform="translate(346.08 200.072)"/>
        <path id="Tracé_1243" d="M879.468 395.2l6.876.473-11.423 3.42-5.821-.437z" class="cls-7" data-name="Tracé 1243" transform="translate(346.08 200.581)"/>
        <path id="Tracé_1244" d="M895.3 397.347c.291-.109.546.109.837.146.182.036.327 0 .509.036.327.036.691.291.982.146" class="cls-8" data-name="Tracé 1244" transform="translate(329.411 199.234)"/>
        <path id="Tracé_1245" d="M894.3 397.847c.291-.109.546.109.837.146.182.036.327 0 .509.036.328.036.691.291.982.146" class="cls-8" data-name="Tracé 1245" transform="translate(330.047 198.916)"/>
        <path id="Tracé_1246" d="M892.1 399.047c.255-.109.546.109.837.146.182.036.327 0 .509.036.327.036.655.291.982.145" class="cls-8" data-name="Tracé 1246" transform="translate(331.447 198.153)"/>
        <ellipse id="Ellipse_143" cx="73.67" cy="15.171" class="cls-1" data-name="Ellipse 143" rx="73.67" ry="15.171" transform="translate(995.626 707.104)"/>
        <path id="Tracé_1247" d="M324.8 722.045c-4.766.218-10.95-5.166-10.95-5.166l-.327-5.566s-.4.218-1.237-1.019c-.546-.837.255-4.293.837-6.476.291-1.055.509-1.819.509-1.819l10.441 2.8.509 1.31 4.038 10.768s.906 4.95-3.82 5.168z" class="cls-9" data-name="Tracé 1247" transform="translate(700.443 5.395)"/>
        <path id="Tracé_1248" d="M423.761 692.857s-12.115 4.657-16.007 1.019-6.839-2.583-6.839-2.583-6.839.109-8.186-.4c-.8-.291-.364-2.874.146-4.948.327-1.419.691-2.583.691-2.583s11.9-4.038 13.752-1.564a8.248 8.248 0 0 0 2 1.892c2.146 1.564 5.53 2.983 10.841 5.13 7.349 2.98 3.602 4.037 3.602 4.037z" class="cls-9" data-name="Tracé 1248" transform="translate(649.427 18.759)"/>
        <path id="Tracé_1249" d="M443.719 453.8l3.311 6.621s4.766 6.73-.837 9.313-5.493-14.879-5.493-14.879z" class="cls-10" data-name="Tracé 1249" transform="translate(618.627 163.3)"/>
        <path id="Tracé_1250" d="M410.9 296.1s3.638 1.637 5.784 8.586 5.057 18.736 5.057 18.736 1.965 13.352 1.637 16.662a23.14 23.14 0 0 0 .109 5.493l2.8 9.313-5.566 1.965-8.586-32.888z" class="cls-11" data-name="Tracé 1250" transform="translate(637.586 263.628)"/>
        <path id="Tracé_1251" d="M410.9 296.1s3.638 1.637 5.784 8.586 5.057 18.736 5.057 18.736 1.965 13.352 1.637 16.662a23.14 23.14 0 0 0 .109 5.493l2.8 9.313-5.566 1.965-8.586-32.888z" class="cls-4" data-name="Tracé 1251" transform="translate(637.586 263.628)"/>
        <path id="Tracé_1252" d="M325.85 704.7l.509 1.31-.618 1.164c-2.365 1.019-8.258.218-8.258.218s-1.091-1.382-2.583-3.674c.291-1.055.509-1.819.509-1.819z" class="cls-6" data-name="Tracé 1252" transform="translate(698.661 5.459)"/>
        <path id="Tracé_1253" d="M410.744 684.162c-3.02 6.839-13.279 4.293-16.116 3.456-.473-.146-.728-.255-.728-.255s0-.546.036-1.419c.327-1.419.691-2.583.691-2.583s11.9-4.038 13.752-1.564a8.249 8.249 0 0 0 2 1.892 1.5 1.5 0 0 0 .365.473z" class="cls-6" data-name="Tracé 1253" transform="translate(648.401 18.759)"/>
        <path id="Tracé_1254" d="M355.676 508.485c-2.474 5.166.509 8.076.509 8.076-3.02 6.839-13.279 4.293-16.116 3.456-.473-.146-.728-.218-.728-.218s.218-7.13-.509-10.55-.618-17.79-.218-19.536a44.459 44.459 0 0 0 .618-5.166 23.923 23.923 0 0 1 .218-6 3.058 3.058 0 0 0-.764-3.056l-.036-.073s-2.292 7.749-3.092 9.1-1.128 8.076-1.237 9.313-4.366 11.569-4.366 11.569-1.637 4.766-1.964 6.112-1.564 5.166-1.564 5.166l-4.984 9.6c-2.365 1.019-8.258.218-8.258.218s-1.128-1.455-2.692-3.82-2.292-10.732-2.292-10.732 5.675-.109 4.22-5.566 1.237-9.714 1.128-11.569 1.237-7.967 1.965-8.877.618-4.875.4-7.021-.109-9.823-.109-9.823.218-3.42 1.237-4.948.619-6 .619-6 1.964-1.019.618-11.06 2.183-23.065 2.183-23.065l.109-1.819.182-2.947s29.577-1.855 31.942.4a7.839 7.839 0 0 1 1.528 2.183 22.393 22.393 0 0 1 1.71 5.493l1.237 31.323 1.23 23.062-.4 17.39a20.551 20.551 0 0 1-2.324 9.385z" class="cls-12" data-name="Tracé 1254" transform="translate(702.924 185.74)"/>
        <path id="Tracé_1255" d="M399.608 495.9l-3.092 67.194-3.711 6.112c-.473-.146-.728-.218-.728-.218s.218-7.13-.509-10.55-.618-17.79-.218-19.536a44.45 44.45 0 0 0 .618-5.166 23.918 23.918 0 0 1 .218-6 3.058 3.058 0 0 0-.764-3.056l.036-.364z" class="cls-6" data-name="Tracé 1255" transform="translate(650.224 136.516)"/>
        <path id="Tracé_1256" d="M322.482 690.133s8.076-3.2 9.313-2.183-9.5 2.583-9.5 2.583z" class="cls-6" data-name="Tracé 1256" transform="translate(693.953 14.461)"/>
        <path id="Tracé_1257" d="M419.075 671c-.291.109-8.186 2.91-7.458 5.894s7.458-5.894 7.458-5.894z" class="cls-6" data-name="Tracé 1257" transform="translate(637.16 25.118)"/>
        <path id="Tracé_1258" d="M364.7 243.815s2.619 6.367 1.237 9.6S381 262.26 381 262.26s-4.8-12.406-.146-19.391-16.154.946-16.154.946z" class="cls-10" data-name="Tracé 1258" transform="translate(666.978 299.324)"/>
        <path id="Tracé_1259" d="M504.018 383.889s-9.313-2.692-10.841-.036.473 8.44 3.274 9.35 9.241-3.165 9.241-3.165z" class="cls-13" data-name="Tracé 1259" transform="translate(585.578 208.546)"/>
        <path id="Tracé_1260" d="M375.567 211.362A11.629 11.629 0 0 1 363.925 223c-5.966-2.874-11.642-5.2-11.642-11.642a11.632 11.632 0 0 1 23.247-.91 7.92 7.92 0 0 1 .036.91z" class="cls-6" data-name="Tracé 1260" transform="translate(674.883 325.229)"/>
        <path id="Tracé_1261" d="M375.647 211.405a11.667 11.667 0 1 1-2.656-7.349 11.534 11.534 0 0 1 2.656 7.349z" class="cls-10" data-name="Tracé 1261" transform="translate(674.804 324.894)"/>
        <path id="Tracé_1262" d="M376.115 421.628a24.108 24.108 0 0 1-3.6 1.855s-5.894-.873-6.73.145-8.367 1.382-8.367 1.382-11.46-.546-13.17-2a7.065 7.065 0 0 0-1.746-1.019l.182-2.947s29.577-1.855 31.942.4a7.506 7.506 0 0 1 1.489 2.184z" class="cls-6" data-name="Tracé 1262" transform="translate(681.102 185.868)"/>
        <path id="Tracé_1263" d="M365.985 322.4c-.218 1.31-5.057 3.347-5.057 3.347s-5.894-.837-6.73.146-8.367 1.382-8.367 1.382-11.46-.546-13.17-2-5.493-2.183-5.493-2.183-1.928-13.788-1.164-16.844-1.164-11.314-1.637-14.261 1.31-11.1 3.492-12.406 5.275-5.748 7.13-7.058c1.564-1.091 3.311-2.547 3.82-2.983l.146-.109a7.452 7.452 0 0 1 1.564-3.638c1.237-1.237 12.624 7.822 12.624 7.822s.073.691.873-.618c.182-.291 1.673 1.855 1.928 2.8 0 0 6.221 10.878 6.585 13.1s2 9.532 2.328 11.314c.073.473.218 2.074.364 4.22.036.437.073.873.073 1.346.218 3.565.473 8.149.618 11.569 0 .4.036.764.036 1.128.073 1.311.073 2.621.037 3.926z" class="cls-11" data-name="Tracé 1263" transform="translate(692.688 282.981)"/>
        <path id="Tracé_1264" d="M330.6 344.7s4.257 5.2 5.675 5.2-5.675-5.2-5.675-5.2z" class="cls-6" data-name="Tracé 1264" transform="translate(688.673 232.709)"/>
        <path id="Tracé_1265" d="M344.585 375.4s-6.985 7.6-6.039 8.986 6.039-8.986 6.039-8.986z" class="cls-6" data-name="Tracé 1265" transform="translate(683.674 213.178)"/>
        <path id="Tracé_1266" d="M341.3 396.287s8-8.768 8.367-11.787z" class="cls-6" data-name="Tracé 1266" transform="translate(681.865 207.388)"/>
        <path id="Tracé_1267" d="M369 401.967s9.241-4.875 10-8.768-10 8.768-10 8.768z" class="cls-6" data-name="Tracé 1267" transform="translate(664.243 202.327)"/>
        <path id="Tracé_1268" d="M492.313 394.641c-1.637-.109-5.53-2.11-7.058-2.91l-.655-.364.073-6a7.314 7.314 0 0 1 1.2-.582c2.074-.91 6.294-2.146 8.44 1.819 2.875 5.236.073 8.146-2 8.037z" class="cls-10" data-name="Tracé 1268" transform="translate(590.698 207.798)"/>
        <path id="Tracé_1269" d="M372.978 203.943a1.715 1.715 0 0 1-.546.218c-1.346.291-2.874-.873-4.038-.109a2.936 2.936 0 0 0-.946 2.256c-.182 1.455-.327 2.91-.509 4.329a5.214 5.214 0 0 1-.327 1.492 3.729 3.729 0 0 1-3.565 1.892 2.111 2.111 0 0 1-1.528-.509c-.255-.255-.4-.618-.655-.837-1.819-1.528-2.365 2.219-1.892 3.274.764 1.746 3.493 3.42 2.365 5.6a1.862 1.862 0 0 1-.837.837 11.645 11.645 0 0 1 6.949-22.228 11.833 11.833 0 0 1 5.529 3.785z" class="cls-6" data-name="Tracé 1269" transform="translate(674.853 325.008)"/>
        <path id="Tracé_1270" d="M353.92 203.444c.291.218.4.582.655.837a2.165 2.165 0 0 0 1.528.509 3.729 3.729 0 0 0 3.565-1.892 5.211 5.211 0 0 0 .327-1.492l.509-4.329a3.067 3.067 0 0 1 .946-2.256c1.164-.728 2.692.4 4.038.109a1.974 1.974 0 0 0 1.455-2.292 13.119 13.119 0 0 0-.946-1.892 10.941 10.941 0 0 1-.4-1.564c-.764-2.838-4.075-4.4-6.949-3.929-1.6.255-3.092 1.019-4.693 1.273-1.164.182-2.328.073-3.492.182a9.189 9.189 0 0 0-3.092.91 1.779 1.779 0 0 0-.655.509 2.263 2.263 0 0 0-.327.946c-.4 1.455-1.637 2.51-2.547 3.747a8.958 8.958 0 0 0-1.71 4.839 3.917 3.917 0 0 0 .109 1.31c.073.255.182.509.255.764a5.114 5.114 0 0 1-.437 2.4 4.771 4.771 0 0 0 .255 3.02c1.382 3.2 6 4.293 6.949 7.64a7.8 7.8 0 0 0 2.692.728 2.671 2.671 0 0 0 2.4-1.237c1.128-2.183-1.6-3.893-2.365-5.6-.471-1.021.075-4.768 1.93-3.24z" class="cls-14" data-name="Tracé 1270" transform="translate(681.469 334.202)"/>
        <path id="Tracé_1271" d="M482 404.874l6.658 4.62s4.693-2.656 1.965-4.329a12.069 12.069 0 0 0-6.039-1.965c-.874 0-2.584 1.674-2.584 1.674z" class="cls-13" data-name="Tracé 1271" transform="translate(592.352 195.492)"/>
        <path id="Tracé_1272" d="M494.773 383.219a1.024 1.024 0 0 0-.473.873c0 1.419.146 5.166 1.346 3.456 1.455-2.074 1.2-3.929 3.42-2.583a13.3 13.3 0 0 1 3.565 3.274l-.618-4.438s-4.584-2.255-7.24-.582z" class="cls-13" data-name="Tracé 1272" transform="translate(584.527 208.596)"/>
        <path id="Tracé_1273" d="M373.368 341.369c-.946.146-1.892.291-2.729.4-4.729.618-15.971-4.948-15.971-4.948s-13.715-11.46-17.681-22.337 4.729-12.478 4.729-12.478c3.274-1.855 10.4 3.347 11.387 4.184a6.577 6.577 0 0 1 1.783 4.4c-.073 1.382 2.328 3.165 2.328 3.165s4.111 7.13 5.13 7.894a4.028 4.028 0 0 1 1.564 2.8c.327 1.346 3.02 2.4 4.184 2.328s2.547.4 2.547 1.019c0 .509 1.128.728 2.074.837.219 4.005.51 9.207.655 12.736z" class="cls-6" data-name="Tracé 1273" transform="translate(685.268 260.124)"/>
        <path id="Tracé_1274" d="M374.313 338.142q-1.091.164-2.074.327c-4.729.618-15.971-4.948-15.971-4.948s-13.715-11.46-17.681-22.337 4.729-12.478 4.729-12.478c3.274-1.855 10.4 3.347 11.387 4.184a6.577 6.577 0 0 1 1.783 4.4c-.073 1.382 2.328 3.165 2.328 3.165s4.111 7.13 5.13 7.895a4.028 4.028 0 0 1 1.564 2.8c.327 1.346 3.02 2.4 4.184 2.328s2.547.4 2.547 1.019c0 .364.655.618 1.382.728.036.437.073.873.073 1.346.256 3.529.474 8.115.619 11.571z" class="cls-6" data-name="Tracé 1274" transform="translate(684.25 262.223)"/>
        <path id="Tracé_1275" d="M485.873 386.3l-.291 6.985h-.327l-.655-.364.073-6a9.406 9.406 0 0 1 1.2-.621z" class="cls-6" data-name="Tracé 1275" transform="translate(590.698 206.243)"/>
        <path id="Tracé_1276" d="M341.617 300.294s-8.695 1.637-4.729 12.478 17.681 22.337 17.681 22.337 11.241 5.566 15.971 4.948 11.933-2.256 12.879-2 7.2.218 7.2.218l.291-7.276-7.276-.4-3.711-.764s-1.31-1.091-2.11-.946-2.4-.946-2.4-.946a4.577 4.577 0 0 0-2.183-1.019c-.946 0-2.728-.218-2.728-.837s-1.382-1.091-2.547-1.019-3.893-1.019-4.22-2.328a4.186 4.186 0 0 0-1.564-2.8c-1.019-.8-5.13-7.931-5.13-7.931s-2.4-1.783-2.328-3.165a6.566 6.566 0 0 0-1.783-4.438c-1.017-.874-8.075-5.967-11.313-4.112z" class="cls-11" data-name="Tracé 1276" transform="translate(685.331 261.217)"/>
        <path id="Tracé_1277" d="M408.52 369.6s-3.347 3.347-2.474 3.965z" class="cls-6" data-name="Tracé 1277" transform="translate(640.767 216.868)"/>
        <path id="Tracé_1278" d="M417.017 376.9s-4.329 3.347-3.165 3.565 3.165-3.565 3.165-3.565z" class="cls-6" data-name="Tracé 1278" transform="translate(635.834 212.224)"/>
        <path id="Tracé_1279" d="M402.6 390.5c.618.327 9.859 5.821 13.352 5.748z" class="cls-6" data-name="Tracé 1279" transform="translate(642.866 203.571)"/>
        <path id="Tracé_1280" d="M379.334 275.319s-1.637 5.348-2.256 5.348c-.473 0-8.658-6.621-12.078-9.422l.146-.109a7.452 7.452 0 0 1 1.564-3.638c1.237-1.238 12.624 7.821 12.624 7.821z" class="cls-6" data-name="Tracé 1280" transform="translate(666.787 281.899)"/>
        <path id="Tracé_1281" d="M378.434 273.619s-1.637 5.348-2.256 5.348c-.509 0-8.695-6.621-12.078-9.422l.146-.109a7.453 7.453 0 0 1 1.564-3.638c1.237-1.238 12.624 7.821 12.624 7.821z" class="cls-11" data-name="Tracé 1281" transform="translate(667.36 282.981)"/>
        <g id="Groupe_79" class="cls-15" data-name="Groupe 79" transform="translate(1023.82 521.384)">
            <path id="Tracé_1282" d="M343.1 240c1.091 2.51 4.111 3.711 5.821 5.675-1.021-2.437-4.038-3.638-5.821-5.675z" data-name="Tracé 1282" transform="translate(-343.1 -222.065)"/>
            <path id="Tracé_1283" d="M365.3 252.11a2.671 2.671 0 0 1-2.4 1.237 6.887 6.887 0 0 1-2.4-.618 4.329 4.329 0 0 1 .618 1.31 7.8 7.8 0 0 0 2.692.728 2.529 2.529 0 0 0 2.4-1.237c.691-1.31-.036-2.474-.873-3.529a2.277 2.277 0 0 1-.037 2.109z" data-name="Tracé 1283" transform="translate(-354.17 -228.427)"/>
            <path id="Tracé_1284" d="M382.715 196.157a13.113 13.113 0 0 0-.946-1.892 10.95 10.95 0 0 1-.4-1.564 5 5 0 0 0-1.128-2 3.2 3.2 0 0 1 .182.546c.109.546.255 1.055.4 1.564a10.208 10.208 0 0 1 .946 1.892 1.993 1.993 0 0 1-1.455 2.292c-1.346.291-2.874-.873-4.038-.109a2.964 2.964 0 0 0-.982 2.256c-.146 1.455-.327 2.91-.509 4.329a5.212 5.212 0 0 1-.327 1.492 3.729 3.729 0 0 1-3.565 1.892 2.111 2.111 0 0 1-1.528-.509 16.969 16.969 0 0 0-.655-.837c-1.819-1.528-2.365 2.219-1.892 3.274a8.547 8.547 0 0 0 .873 1.346c-.4-1.2.146-4.657 1.928-3.165a4.732 4.732 0 0 1 .655.837 2.165 2.165 0 0 0 1.528.509 3.729 3.729 0 0 0 3.565-1.892 5.214 5.214 0 0 0 .327-1.492c.182-1.455.327-2.91.509-4.329a3.067 3.067 0 0 1 .946-2.256c1.164-.764 2.692.4 4.038.109a2 2 0 0 0 1.528-2.293z" data-name="Tracé 1284" transform="translate(-358.086 -190.7)"/>
        </g>
        <ellipse id="Ellipse_144" cx="8.804" cy="1.346" class="cls-1" data-name="Ellipse 144" rx="8.804" ry="1.346" transform="translate(953.316 708.05)"/>
        <ellipse id="Ellipse_145" cx="8.804" cy="1.346" class="cls-1" data-name="Ellipse 145" rx="8.804" ry="1.346" transform="translate(1260.327 672.943)"/>
        <ellipse id="Ellipse_146" cx="25.466" cy="3.893" class="cls-1" data-name="Ellipse 146" rx="25.466" ry="3.893" transform="translate(1154.025 724.785)"/>
        <ellipse id="Ellipse_147" cx="19.864" cy="3.056" class="cls-1" data-name="Ellipse 147" rx="19.864" ry="3.056" transform="translate(1232.024 709.069)"/>
        <ellipse id="Ellipse_148" cx="33.688" cy="5.166" class="cls-1" data-name="Ellipse 148" rx="33.688" ry="5.166" transform="translate(1214.925 737.336)"/>
        <ellipse id="Ellipse_149" cx="25.466" cy="3.893" class="cls-1" data-name="Ellipse 149" rx="25.466" ry="3.893" transform="translate(899 743.157)"/>
        <path id="Tracé_1285" d="M169.673 589.3s.982 1.31-.473 3.274-2.656 3.638-2.183 4.839c0 0 2.183-3.638 4-3.711s.657-2.219-1.344-4.402z" class="cls-16" data-name="Tracé 1285" transform="translate(792.811 77.095)"/>
        <path id="Tracé_1286" d="M169.792 589.3a3.981 3.981 0 0 1 .218.4c1.746 2.037 2.692 3.965.982 4-1.564.036-3.42 2.838-3.893 3.529 0 .036.036.109.036.146 0 0 2.183-3.638 4-3.711s.658-2.181-1.343-4.364z" class="cls-6" data-name="Tracé 1286" transform="translate(792.691 77.095)"/>
        <path id="Tracé_1287" d="M179.218 593.367c0 .473-.036.837-.109.837s-.109-.364-.109-.837.073-.255.146-.255.072-.218.072.255z" class="cls-17" data-name="Tracé 1287" transform="translate(785.12 74.702)"/>
        <path id="Tracé_1288" d="M180.064 594.817c-.4.218-.764.364-.764.291s.255-.291.691-.509.255-.073.291 0 .182.001-.218.218z" class="cls-17" data-name="Tracé 1288" transform="translate(784.93 73.797)"/>
        <path id="Tracé_1289" d="M156.19 589.3s-.982 1.31.473 3.274 2.656 3.638 2.183 4.839c0 0-2.183-3.638-4-3.711-1.784-.036-.656-2.219 1.344-4.402z" class="cls-16" data-name="Tracé 1289" transform="translate(801.054 77.095)"/>
        <path id="Tracé_1290" d="M156.18 589.3a3.978 3.978 0 0 0-.218.4c-1.746 2.037-2.692 3.965-.982 4 1.564.036 3.42 2.838 3.893 3.529 0 .036-.036.109-.036.146 0 0-2.183-3.638-3.965-3.711-1.857-.035-.693-2.181 1.308-4.364z" class="cls-6" data-name="Tracé 1290" transform="translate(801.065 77.095)"/>
        <path id="Tracé_1291" d="M155 593.367c0 .473.036.837.109.837s.109-.364.109-.837-.073-.255-.146-.255-.072-.218-.072.255z" class="cls-17" data-name="Tracé 1291" transform="translate(800.389 74.702)"/>
        <path id="Tracé_1292" d="M152.83 594.817c.4.218.764.364.8.291s-.291-.291-.691-.509-.255-.073-.291 0-.254.001.182.218z" class="cls-17" data-name="Tracé 1292" transform="translate(801.94 73.797)"/>
        <ellipse id="Ellipse_150" cx="10.405" cy="1.601" class="cls-1" data-name="Ellipse 150" rx="10.405" ry="1.601" transform="translate(949.459 681.274)"/>
        <path id="Tracé_1293" d="M163.329 605.718l-.036.4-.073.582-.036.255-.073.582-.036.255-.073.582-.8 6.548c-.073.582-1.019 1.019-2.183 1.019h-4.111c-1.164 0-2.11-.473-2.183-1.019l-.8-6.548-.073-.582-.036-.255-.073-.582-.036-.255-.073-.582-.036-.4c-.036-.327.473-.618 1.128-.618h8.474c.656 0 1.165.291 1.129.618z" class="cls-18" data-name="Tracé 1293" transform="translate(801.919 67.043)"/>
        <path id="Tracé_1294" d="M163.323 607.9l-.073.582h-10.477l-.073-.582z" class="cls-19" data-name="Tracé 1294" transform="translate(801.852 65.262)"/>
        <path id="Tracé_1295" d="M163.4 610.2l-.036.546h-10.3L153 610.2z" class="cls-19" data-name="Tracé 1295" transform="translate(801.662 63.798)"/>
        <path id="Tracé_1296" d="M163.523 612.4l-.073.582h-10.077l-.073-.582z" class="cls-19" data-name="Tracé 1296" transform="translate(801.471 62.399)"/>
        <path id="Tracé_1297" d="M998.093 575.5s-1.237 5.784 4.293 6.476l.327-.655c.037 0-4.256-4.038-4.62-5.821z" class="cls-16" data-name="Tracé 1297" transform="translate(264.089 85.875)"/>
        <path id="Tracé_1298" d="M1007.565 576.195l-1.273.291-.109.036s-3.42-2.8-3.383-9.022a17.224 17.224 0 0 0 1.637 2.583c1.309 1.783 2.874 4.184 3.128 6.112z" class="cls-16" data-name="Tracé 1298" transform="translate(261.021 90.964)"/>
        <path id="Tracé_1299" d="M1011.75 573.023a.8.8 0 0 1-.691.109c-3.311-.764-2.183-11.533-2.183-11.533.182.073.364 1.455 1.128 3.238 1.346 3.057 2.801 7.422 1.746 8.186z" class="cls-16" data-name="Tracé 1299" transform="translate(257.272 94.718)"/>
        <path id="Tracé_1300" d="M1027.339 575.5s.218 5.784-5.312 6.476l-.327-.655s5.311-4.038 5.639-5.821z" class="cls-16" data-name="Tracé 1300" transform="translate(248.996 85.875)"/>
        <path id="Tracé_1301" d="M1022.721 567.5a10.78 10.78 0 0 1-4.4 9.022l-.146-.036-1.273-.291c.255-1.928 1.819-4.293 3.165-6.112a11.94 11.94 0 0 1 2.654-2.583z" class="cls-16" data-name="Tracé 1301" transform="translate(252.049 90.964)"/>
        <path id="Tracé_1302" d="M1016.668 572.477a1.55 1.55 0 0 1-.728.546 2.51 2.51 0 0 1-.291.109c-.8.182-1.091-.4-1.055-1.383.073-1.783 1.2-4.839 2.183-7.167a8.987 8.987 0 0 1 2.074-2.983c.037-.036-.036 8.368-2.183 10.878z" class="cls-16" data-name="Tracé 1302" transform="translate(253.518 94.718)"/>
        <path id="Tracé_1303" d="M1014.661 551.2s-3.674 13.1-.509 15.061 1.309-13.933.509-15.061z" class="cls-16" data-name="Tracé 1303" transform="translate(254.616 101.334)"/>
        <path id="Tracé_1304" d="M998.093 575.5s-1.237 5.784 4.293 6.476l.327-.655c.037 0-4.256-4.038-4.62-5.821z" class="cls-6" data-name="Tracé 1304" transform="translate(264.089 85.875)"/>
        <path id="Tracé_1305" d="M1007.565 576.195l-1.273.291-.109.036s-3.42-2.8-3.383-9.022a17.224 17.224 0 0 0 1.637 2.583c1.309 1.783 2.874 4.184 3.128 6.112z" class="cls-6" data-name="Tracé 1305" transform="translate(261.021 90.964)"/>
        <path id="Tracé_1306" d="M1011.75 573.023a.8.8 0 0 1-.691.109c-3.311-.764-2.183-11.533-2.183-11.533.182.073.364 1.455 1.128 3.238 1.346 3.057 2.801 7.422 1.746 8.186z" class="cls-6" data-name="Tracé 1306" transform="translate(257.272 94.718)"/>
        <path id="Tracé_1307" d="M1027.339 575.5s.218 5.784-5.312 6.476l-.327-.655s5.311-4.038 5.639-5.821z" class="cls-6" data-name="Tracé 1307" transform="translate(248.996 85.875)"/>
        <path id="Tracé_1308" d="M1022.721 567.5a10.78 10.78 0 0 1-4.4 9.022l-.146-.036-1.273-.291c.255-1.928 1.819-4.293 3.165-6.112a11.94 11.94 0 0 1 2.654-2.583z" class="cls-6" data-name="Tracé 1308" transform="translate(252.049 90.964)"/>
        <path id="Tracé_1309" d="M1016.668 572.477a1.55 1.55 0 0 1-.728.546 2.51 2.51 0 0 1-.291.109c-.8.182-1.091-.4-1.055-1.383.073-1.783 1.2-4.839 2.183-7.167a8.987 8.987 0 0 1 2.074-2.983c.037-.036-.036 8.368-2.183 10.878z" class="cls-6" data-name="Tracé 1309" transform="translate(253.518 94.718)"/>
        <path id="Tracé_1310" d="M1014.661 551.2s-3.674 13.1-.509 15.061 1.309-13.933.509-15.061z" class="cls-6" data-name="Tracé 1310" transform="translate(254.616 101.334)"/>
        <path id="Tracé_1311" d="M998.245 575.5s-.728 5.784 4.8 6.476l.327-.655c.039 0-4.763-4.038-5.127-5.821z" class="cls-16" data-name="Tracé 1311" transform="translate(263.938 85.875)"/>
        <path id="Tracé_1312" d="M1008.012 576.258l-1.273.291-.109.036a11.178 11.178 0 0 1-3.929-8.986s1.019 1.091 2.146 2.583c1.346 1.747 2.91 4.148 3.165 6.076z" class="cls-16" data-name="Tracé 1312" transform="translate(261.083 90.9)"/>
        <path id="Tracé_1313" d="M1011.765 580.776l-1.273.291c-1.2-1.055-1.71-3.856-1.892-6.367 1.346 1.746 2.91 4.147 3.165 6.076z" class="cls-6" data-name="Tracé 1313" transform="translate(257.33 86.383)"/>
        <path id="Tracé_1314" d="M1012.5 573.023a.8.8 0 0 1-.691.109c-3.311-.764-2.692-11.533-2.692-11.533a14.354 14.354 0 0 1 1.673 3.238c1.31 3.057 2.768 7.422 1.71 8.186z" class="cls-16" data-name="Tracé 1314" transform="translate(257.028 94.718)"/>
        <path id="Tracé_1315" d="M1028.23 575.5s.728 5.784-4.8 6.476l-.327-.655s4.797-4.038 5.127-5.821z" class="cls-16" data-name="Tracé 1315" transform="translate(248.105 85.875)"/>
        <path id="Tracé_1316" d="M1023.675 567.5c.036 6.221-3.893 9.022-3.893 9.022l-.109-.036-1.273-.291c.255-1.928 1.819-4.293 3.165-6.112a31.2 31.2 0 0 1 2.11-2.583z" class="cls-16" data-name="Tracé 1316" transform="translate(251.095 90.964)"/>
        <path id="Tracé_1317" d="M1021.365 574.6c-.182 2.365-.582 4.948-1.637 6.148a1.672 1.672 0 0 1-.255.255l-1.273-.291c.255-1.928 1.819-4.329 3.165-6.112z" class="cls-6" data-name="Tracé 1317" transform="translate(251.222 86.447)"/>
        <path id="Tracé_1318" d="M1018.132 572.477a1.55 1.55 0 0 1-.728.546c-.073.036-.182.073-.255.109-.8.182-1.091-.4-1.055-1.383.073-1.783 1.2-4.839 2.183-7.167a13.54 13.54 0 0 1 1.564-2.983c.001-.036.474 8.368-1.709 10.878z" class="cls-16" data-name="Tracé 1318" transform="translate(252.564 94.718)"/>
        <path id="Tracé_1319" d="M1015.135 578.622a.87.87 0 0 1-.509-.182c-1.564-.982-1.6-4.584-1.2-8.04 1.309 3.092 2.764 7.458 1.709 8.222z" class="cls-6" data-name="Tracé 1319" transform="translate(254.397 89.119)"/>
        <path id="Tracé_1320" d="M1018.137 577.631c-.182.4-.437.582-.728.546a.933.933 0 0 1-.437-.182 2.388 2.388 0 0 1-.873-1.128c.073-1.783 1.2-4.839 2.183-7.167.365 3.2.474 6.585-.145 7.931z" class="cls-6" data-name="Tracé 1320" transform="translate(252.559 89.564)"/>
        <path id="Tracé_1321" d="M1015.34 551.2s-3.165 13.1 0 15.061.8-13.933 0-15.061z" class="cls-16" data-name="Tracé 1321" transform="translate(253.937 101.334)"/>
        <path id="Tracé_1322" d="M1011.406 590.8H998.2v2.183h2l.073.255.8 4.257h7.676l.8-4.257.073-.255h1.783z" class="cls-20" data-name="Tracé 1322" transform="translate(263.947 76.141)"/>
        <path id="Tracé_1323" d="M1011.406 590.8H998.2v2.183h2l.073.255.8 4.257h7.676l.8-4.257.073-.255h1.783z" class="cls-6" data-name="Tracé 1323" transform="translate(263.947 76.141)"/>
        <path id="Tracé_1324" d="M1014.413 594.3l-.218 1.164-.8 4.256h-7.676l-.8-4.256-.218-1.164z" class="cls-20" data-name="Tracé 1324" transform="translate(259.811 73.914)"/>
        <path id="Tracé_1325" d="M1014.413 594.3l-.218 1.164h-9.277l-.218-1.164z" class="cls-6" data-name="Tracé 1325" transform="translate(259.811 73.914)"/>
        <path id="Rectangle_141" d="M0 0h13.206v2.183H0z" class="cls-20" data-name="Rectangle 141" transform="translate(1262.656 666.941)"/>
        <path id="Tracé_1326" d="M69.468 688.784a6.48 6.48 0 0 0-.837 1.564c-.036.146-.109.291-.146.437-.109-.036-.182-.073-.291-.109a4 4 0 0 0-1.31-.109c0-.182.036-.364.036-.546.036-1.928-.182-4.584-2-3.456-1.746 1.091-.509 2.91.618 4.075l.291.291c-1.019.728-1.237 2.437-1.419 4.22s-1.673 3.747-2.692 4.839a2.2 2.2 0 0 1-.291.291 3.734 3.734 0 0 0-2.947-.764 2.352 2.352 0 0 0-.146-.473c-.8-2.947-2.51-8.04-4.657-9.168l.291-.364c.91-1.2 1.965-2.983.437-3.42s-1.673 1.528-1.564 3.056c0 .182.036.364.036.546a2.389 2.389 0 0 0-1.6.764l-.218-.291c-1.237-1.455-3.492-3.784-4.184-2.037-.655 1.637 1.346 3.747 2.765 4.984l.073.073c-.946 3.82 3.165 6.949 5.384 8.295l.291.182c-3.056 3.6-4.948 10.368-4.948 10.368l8.549 1.528s5.675-4.911 4.948-9.5h.073c5.675-1.128 6.949-7.167 6.075-10.768l.109-.036a6.411 6.411 0 0 0 2.619-2c1.603-2.145-1.708-4.619-3.345-2.472z" class="cls-16" data-name="Tracé 1326" transform="translate(869.259 15.556)"/>
        <path id="Tracé_1327" d="M69.468 688.784a6.48 6.48 0 0 0-.837 1.564c-.036.146-.109.291-.146.437-.109-.036-.182-.073-.291-.109a4 4 0 0 0-1.31-.109c0-.182.036-.364.036-.546.036-1.928-.182-4.584-2-3.456-1.746 1.091-.509 2.91.618 4.075l.291.291c-1.019.728-1.237 2.437-1.419 4.22s-1.673 3.747-2.692 4.839a2.2 2.2 0 0 1-.291.291 3.734 3.734 0 0 0-2.947-.764 2.352 2.352 0 0 0-.146-.473c-.8-2.947-2.51-8.04-4.657-9.168l.291-.364c.91-1.2 1.965-2.983.437-3.42s-1.673 1.528-1.564 3.056c0 .182.036.364.036.546a2.389 2.389 0 0 0-1.6.764l-.218-.291c-1.237-1.455-3.492-3.784-4.184-2.037-.655 1.637 1.346 3.747 2.765 4.984l.073.073c-.946 3.82 3.165 6.949 5.384 8.295l.291.182c-3.056 3.6-4.948 10.368-4.948 10.368l8.549 1.528s5.675-4.911 4.948-9.5h.073c5.675-1.128 6.949-7.167 6.075-10.768l.109-.036a6.411 6.411 0 0 0 2.619-2c1.603-2.145-1.708-4.619-3.345-2.472z" class="cls-6" data-name="Tracé 1327" transform="translate(869.259 15.556)"/>
        <path id="Tracé_1328" d="M53.233 693.993l-1.019 2.91s-.546-.4-1.273-1.019c-1.419-1.237-3.42-3.347-2.765-4.984.691-1.746 2.947.546 4.184 2.037a10.291 10.291 0 0 1 .873 1.056z" class="cls-16" data-name="Tracé 1328" transform="translate(868.432 12.856)"/>
        <path id="Tracé_1329" d="M66.038 689.713a9.79 9.79 0 0 1-.982 1.164 21.49 21.49 0 0 1-.182-1.528c-.073-1.492.073-3.493 1.564-3.056s.546 2.22-.4 3.42z" class="cls-16" data-name="Tracé 1329" transform="translate(857.737 15.427)"/>
        <path id="Tracé_1330" d="M98.714 690.585a33.235 33.235 0 0 1-.109 1.746 9.106 9.106 0 0 1-1.237-1.128c-1.128-1.164-2.4-2.983-.618-4.075 1.75-1.128 2.001 1.529 1.964 3.457z" class="cls-16" data-name="Tracé 1330" transform="translate(838.012 15.028)"/>
        <path id="Tracé_1331" d="M111.657 694.692a6.739 6.739 0 0 1-2.619 2l-.873.327-1.165-1.636a11.609 11.609 0 0 1 .473-1.6 6.48 6.48 0 0 1 .837-1.564 2.081 2.081 0 0 1 3.347 2.473z" class="cls-16" data-name="Tracé 1331" transform="translate(830.927 12.157)"/>
        <path id="Tracé_1332" d="M57.455 697.6c.509.582.837 1.019.837 1.019l-1.019 2.91s-.546-.4-1.273-1.019a5.688 5.688 0 0 1 1.128-2.583 1.391 1.391 0 0 0 .327-.327z" class="cls-6" data-name="Tracé 1332" transform="translate(863.373 8.195)"/>
        <path id="Tracé_1333" d="M66.064 695.164a9.8 9.8 0 0 1-.982 1.164 21.49 21.49 0 0 1-.182-1.528 1.85 1.85 0 0 1 1.164.364z" class="cls-6" data-name="Tracé 1333" transform="translate(857.711 9.976)"/>
        <path id="Tracé_1334" d="M65.415 707.632l-2.474 1.091a11.083 11.083 0 0 1-1.31-.764c-2.619-1.6-7.858-5.639-4.366-10.441s6.476 3.784 7.64 7.967c.295 1.315.51 2.147.51 2.147z" class="cls-16" data-name="Tracé 1334" transform="translate(863.307 9.149)"/>
        <path id="Tracé_1335" d="M99.8 697.718a2.118 2.118 0 0 1 1.382-.618 33.235 33.235 0 0 1-.109 1.746c-.436-.364-.873-.727-1.273-1.128z" class="cls-6" data-name="Tracé 1335" transform="translate(835.507 8.513)"/>
        <path id="Tracé_1336" d="M109.137 700.91l-.873.327-1.164-1.637a11.609 11.609 0 0 1 .473-1.6 4.354 4.354 0 0 1 1.564 2.91z" class="cls-6" data-name="Tracé 1336" transform="translate(830.863 7.94)"/>
        <path id="Tracé_1337" d="M86.981 712a1.881 1.881 0 0 1-.4.073c-8.331 1.273-2.765-3.238-2.765-3.238s.364-.364.873-.909c1.019-1.091 2.51-3.056 2.692-4.839.255-2.692.582-5.239 3.747-4.511 3.129.768 3.747 11.864-4.147 13.424z" class="cls-16" data-name="Tracé 1337" transform="translate(846.835 7.651)"/>
        <path id="Rectangle_142" d="M0 0h15.934v4.184H0z" class="cls-21" data-name="Rectangle 142" transform="translate(917.699 740.429)"/>
        <path id="Rectangle_143" d="M0 0h20.809v14.625H0z" class="cls-21" data-name="Rectangle 143" transform="translate(915.189 726.822)"/>
        <path id="Rectangle_144" d="M0 0h15.934v4.184H0z" class="cls-6" data-name="Rectangle 144" transform="translate(917.699 740.429)"/>
        <path id="Rectangle_145" d="M0 0h20.809v14.625H0z" class="cls-6" data-name="Rectangle 145" transform="translate(915.189 726.822)"/>
        <path id="Rectangle_146" d="M0 0h15.934v4.184H0z" class="cls-21" data-name="Rectangle 146" transform="translate(918.754 740.429)"/>
        <path id="Tracé_1338" d="M74.538 722c.364 1.237.546 2.11.546 2.11l-2.474 1.09a11.082 11.082 0 0 1-1.31-.764A6.035 6.035 0 0 1 74.538 722z" class="cls-6" data-name="Tracé 1338" transform="translate(853.639 -7.329)"/>
        <path id="Tracé_1339" d="M86.981 728.575a1.877 1.877 0 0 1-.4.073c-8.331 1.273-2.765-3.238-2.765-3.238s.364-.364.873-.909a5.645 5.645 0 0 1 2.292 4.074z" class="cls-6" data-name="Tracé 1339" transform="translate(846.835 -8.919)"/>
        <path id="Tracé_1340" d="M58.4 735.738S63.057 719 69.641 724.169s-2.656 13.1-2.656 13.1z" class="cls-16" data-name="Tracé 1340" transform="translate(861.846 -8.079)"/>
        <circle id="Ellipse_151" cx=".509" cy=".509" r=".509" class="cls-6" data-name="Ellipse 151" transform="translate(922.065 708.778)"/>
        <circle id="Ellipse_152" cx=".509" cy=".509" r=".509" class="cls-6" data-name="Ellipse 152" transform="translate(922.029 711.252)"/>
        <circle id="Ellipse_153" cx=".509" cy=".509" r=".509" class="cls-6" data-name="Ellipse 153" transform="translate(937.236 709.287)"/>
        <circle id="Ellipse_154" cx=".509" cy=".509" r=".509" class="cls-6" data-name="Ellipse 154" transform="translate(925.012 721.802)"/>
        <circle id="Ellipse_155" cx=".509" cy=".509" r=".509" class="cls-6" data-name="Ellipse 155" transform="translate(936.144 713.325)"/>
        <circle id="Ellipse_156" cx=".509" cy=".509" r=".509" class="cls-6" data-name="Ellipse 156" transform="translate(930.723 718.746)"/>
        <circle id="Ellipse_157" cx=".509" cy=".509" r=".509" class="cls-6" data-name="Ellipse 157" transform="translate(923.884 709.833)"/>
        <circle id="Ellipse_158" cx=".509" cy=".509" r=".509" class="cls-6" data-name="Ellipse 158" transform="translate(935.78 710.852)"/>
        <circle id="Ellipse_159" cx=".509" cy=".509" r=".509" class="cls-6" data-name="Ellipse 159" transform="translate(933.998 714.89)"/>
        <circle id="Ellipse_160" cx=".509" cy=".509" r=".509" class="cls-6" data-name="Ellipse 160" transform="translate(928.504 721.402)"/>
        <circle id="Ellipse_161" cx=".509" cy=".509" r=".509" class="cls-6" data-name="Ellipse 161" transform="translate(927.377 718.855)"/>
        <circle id="Ellipse_162" cx=".509" cy=".509" r=".509" class="cls-6" data-name="Ellipse 162" transform="translate(924.648 713.034)"/>
        <path id="Rectangle_147" d="M0 0h15.934v1.528H0z" class="cls-6" data-name="Rectangle 147" transform="translate(918.754 740.429)"/>
        <path id="Rectangle_148" d="M0 0h20.809v14.625H0z" class="cls-21" data-name="Rectangle 148" transform="translate(916.208 726.822)"/>
        <circle id="Ellipse_163" cx=".509" cy=".509" r=".509" class="cls-6" data-name="Ellipse 163" transform="translate(929.195 723.766)"/>
        <circle id="Ellipse_164" cx=".509" cy=".509" r=".509" class="cls-6" data-name="Ellipse 164" transform="translate(926.067 724.421)"/>
        <circle id="Ellipse_165" cx="5.093" cy="5.093" r="5.093" class="cls-1" data-name="Ellipse 165" transform="translate(1266.548 583.084)"/>
        <g id="Groupe_80" data-name="Groupe 80" transform="translate(1086.612 516.095)">
            <path id="Tracé_1341" d="M553.863 308.967l-10.15 7.531-24.957 11.314c3.056-6.585-3.056-8.95-3.056-8.95s16.917-8.477 20.919-10.841 13.679-11.1 15.789-16.99 8.258-8.731 8.258-8.731z" class="cls-22" data-name="Tracé 1341" transform="translate(-515.7 -243.687)"/>
            <path id="Tracé_1342" d="M631.02 274.21l-1.964.218v3.529l-1.855 1.091 1.128-4.62 2.692-2.328z" class="cls-23" data-name="Tracé 1342" transform="translate(-586.636 -237.198)"/>
            <path id="Tracé_1343" d="M631.02 274.21l-1.964.218v3.529l-1.855 1.091 1.128-4.62 2.692-2.328z" class="cls-6" data-name="Tracé 1343" transform="translate(-586.636 -237.198)"/>
            <path id="Tracé_1344" d="M601.629 398.123c-2.074 2.838-3.129 19.318-3.129 19.318l4.693.946 1.564-20.264s-1.057-2.801-3.128 0z" class="cls-22" data-name="Tracé 1344" transform="translate(-568.377 -316.581)"/>
            <path id="Tracé_1345" d="M601.629 398.123c-2.074 2.838-3.129 19.318-3.129 19.318l4.693.946 1.564-20.264s-1.057-2.801-3.128 0z" class="cls-6" data-name="Tracé 1345" transform="translate(-568.377 -316.581)"/>
            <path id="Tracé_1346" d="M648.68 630c1.637-2.51 4.184-6.876 4.584-10.3a29.711 29.711 0 0 1 1.31-6.185 18.216 18.216 0 0 0 .909-4.657c.327-4.875.946-15.5.073-17.863-.618-1.564-.982-5.566-1.164-9.022-.182-3.238-.255-6.076-.255-6.076h10.15a18.108 18.108 0 0 1 1.6 3.638c1.31 3.856 2.51 10.659.036 19.718-2.692 9.75-3.492 14.261-3.711 16.189a5 5 0 0 0-.073 1.273v3.529l-3.056 9.677-4.257 3.311-7.531-1.164c-.034-.033.548-.834 1.385-2.068z" class="cls-13" data-name="Tracé 1346" transform="translate(-599.421 -430.475)"/>
            <path id="Tracé_1347" d="M550.763 626.55c2.074-2.437 5.057-6.585 5.821-10.768a18.839 18.839 0 0 1 1.273-4.22l2.219-5.2 5.2-27.831s-.255-1.237-.546-2.729c-.327-1.928-.655-4.256-.4-5.057.473-1.419 11.569 2.365 11.569 2.365v7.349s2.11 7.058-2.11 17.208c0 0-5.748 9.2-7.058 14.625a8.511 8.511 0 0 0-.255 1.637v4.729l-8 8.477-6.367 2.583-3.311-.946c-.036-.002.802-.803 1.965-2.222z" class="cls-13" data-name="Tracé 1347" transform="translate(-536.756 -426.992)"/>
            <path id="Tracé_1348" d="M648.582 698.9a7.267 7.267 0 0 0 5.857.8 5.5 5.5 0 0 0 2.729-2.146c1.31-1.928 4.548-6.839 4.147-8.149-.473-1.637.473-5.2.473-5.2a1.3 1.3 0 0 1 .328.146 4.991 4.991 0 0 0-.073 1.273v3.529l-3.056 9.677-4.256 3.311-7.531-1.164c0-.042.582-.843 1.382-2.077z" class="cls-6" data-name="Tracé 1348" transform="translate(-599.36 -499.375)"/>
            <path id="Tracé_1349" d="M639.852 703.9c1.382 1.055 4.729.873 7.785.473a9.209 9.209 0 0 0 7.058-5.2 22.231 22.231 0 0 1 2.656-4.22v7.531h1.164v-8.949a6.284 6.284 0 0 0 .873-6.585 3.831 3.831 0 0 0-2.037-2.146s-.946 3.529-.473 5.2c.364 1.31-2.838 6.221-4.147 8.149A5.5 5.5 0 0 1 650 700.3c-3.129 1.128-6.148-.982-6.148-.982-5.019 2.544-4 4.582-4 4.582z" class="cls-22" data-name="Tracé 1349" transform="translate(-594.631 -499.757)"/>
            <path id="Tracé_1350" d="M550.7 699.8a11.386 11.386 0 0 0 9.968-5.166 36.005 36.005 0 0 1 2.146-3.092c1.455-1.892 3.565-4.8 3.565-6.039a.619.619 0 0 1 .255.036 8.506 8.506 0 0 0-.255 1.637v4.724l-8 8.477-6.367 2.583-3.311-.946c-.001-.034.836-.834 1.999-2.214z" class="cls-6" data-name="Tracé 1350" transform="translate(-536.695 -500.202)"/>
            <path id="Tracé_1351" d="M553.725 692.8a36.042 36.042 0 0 0-2.146 3.092c-3.638 5.857-10.441 5.13-10.441 5.13l-2.729.837c-5.894.946-3.529 2.838-3.529 2.838.946.691 3.42.946 6 1.055a14.384 14.384 0 0 0 11.46-5.057c.509-.582 1.055-1.2 1.637-1.892 4-4.475 5.2-2.365 5.2-2.365l.255 8.731h1.168l-.218-9.9c1.419-8.477-3.056-8.477-3.056-8.477-.035 1.245-2.146 4.155-3.601 6.008z" class="cls-22" data-name="Tracé 1351" transform="translate(-527.604 -501.029)"/>
            <path id="Tracé_1352" d="M677.651 579.538a72.6 72.6 0 0 1-11.5 2.437c-.182-3.238-.255-6.076-.255-6.076h10.15a17.025 17.025 0 0 1 1.605 3.639z" class="cls-6" data-name="Tracé 1352" transform="translate(-611.257 -430.475)"/>
            <path id="Tracé_1353" d="M591.242 570.843c.473-1.419 11.569 2.365 11.569 2.365v5.492a46.635 46.635 0 0 1-11.132-2.765c-.364-1.927-.692-4.291-.437-5.092z" class="cls-6" data-name="Tracé 1353" transform="translate(-563.702 -427.055)"/>
            <path id="Tracé_1354" d="M589.791 458.351s4.184-18.154 4.838-27.54a17.063 17.063 0 0 0-.109-4.511l27.831 3.311s2.074.182 3.056 5.384c.655 3.42.873 9.022-.255 18.19-2.838 23.1 3.311 30.2 3.311 30.2s-21.683 8-41.037 0c0-.041-4.693-3.57 2.365-25.034z" class="cls-22" data-name="Tracé 1354" transform="translate(-560.359 -335.3)"/>
            <path id="Tracé_1355" d="M644.918 229.407a25.114 25.114 0 0 0-1.637 18.845c3.311 10.15-11.1 2.365-11.1 2.365a111.572 111.572 0 0 0-.255-13.279c-.255-2.547-.691-4.729-1.419-5.821-2.324-3.529 14.411-2.11 14.411-2.11z" class="cls-13" data-name="Tracé 1355" transform="translate(-588.601 -209.857)"/>
            <path id="Tracé_1356" d="M644.97 229.407a24.475 24.475 0 0 0-2.219 6.294 10.636 10.636 0 0 1-10.732 1.637c-.255-2.547-.691-4.729-1.419-5.821-2.365-3.529 14.37-2.11 14.37-2.11z" class="cls-6" data-name="Tracé 1356" transform="translate(-588.653 -209.857)"/>
            <circle id="Ellipse_166" cx="10.623" cy="10.623" r="10.623" class="cls-13" data-name="Ellipse 166" transform="translate(36.744 6.562)"/>
            <path id="Tracé_1357" d="M609.6 426.3l27.831 3.311s2.074.182 3.056 5.384c-1.673.218-4.729-.691-8.731-2.8-8.477-4.475-19.573 4.948-19.573 4.948s-1.164-2.765-2.474-6.33a15.551 15.551 0 0 0-.109-4.513z" class="cls-6" data-name="Tracé 1357" transform="translate(-575.439 -335.3)"/>
            <path id="Tracé_1358" d="M600.786 311.277a11.281 11.281 0 0 0 .582-3.274 79.092 79.092 0 0 1 1.6-12.042 74.934 74.934 0 0 1 2.619-9.168c.691-1.892 1.382-3.784 2.074-5.53a47.328 47.328 0 0 1 3.019-6.8c2.365-3.529 14.37-12.26 14.37-12.26 0 .946 3.056 5.2 6.367 8.95s1.637 17.935-2.583 26.885c-4.257 8.95 1.419 20.991 5.675 26.63 4.256 5.675 0 6.585-8.477 2.11s-19.573 4.948-19.573 4.948-7.059-16.666-5.673-20.449z" class="cls-22" data-name="Tracé 1358" transform="translate(-569.717 -230.899)"/>
            <path id="Tracé_1359" d="M640.923 262.643c3.529-2.11 3.274-.036 3.274-.036l-13.606 10.368-.291-4.911s7.094-3.311 10.623-5.421z" class="cls-23" data-name="Tracé 1359" transform="translate(-588.608 -230.579)"/>
            <path id="Tracé_1360" d="M612.9 182.67c-.473 3.056 1.928 6.839 4.366 8.44 1.928 1.273 4.329 1.855 5.857 3.529 3.056 3.311 1.273 8.768 2.874 12.988a5.982 5.982 0 0 0 1.164 1.965 10.411 10.411 0 0 0 3.492 2.146c3.165 1.528 6.148 3.82 7.385 7.131 1.237 3.383.364 7.094-.509 10.587-1.492 5.966-2.983 11.933-4.911 17.754-.91 2.838-1.928 6.112-.4 8.695a7.322 7.322 0 0 0 2.437 2.4c3.529 2.292 8 2.729 12.151 2 6.075-1.055 12.187-5.166 13.169-11.278.91-5.712-2.765-10.95-4.8-16.371a30.317 30.317 0 0 1-1.346-16.953c1.055-5.02 3.42-10.259 1.71-15.1-1.237-3.456-4.293-5.894-7.422-7.785s-6.076-6.257-8.731-8.768a28.594 28.594 0 0 0-10.368-6.694c-2.619-.982-5.566-.618-8.258.146-2.808.875-7.392 1.93-7.86 5.168z" class="cls-6" data-name="Tracé 1360" transform="translate(-577.497 -176.544)"/>
            <path id="Tracé_1361" d="M614.195 182.07c-.473 3.056 1.928 6.839 4.366 8.44 1.928 1.273 4.329 1.855 5.857 3.529 3.056 3.311 1.273 8.768 2.874 12.988a5.98 5.98 0 0 0 1.164 1.965 10.408 10.408 0 0 0 3.492 2.146c3.165 1.528 6.148 3.82 7.385 7.131 1.237 3.383.364 7.094-.509 10.587-1.492 5.966-2.983 11.933-4.911 17.754-.909 2.838-1.928 6.112-.4 8.695a7.322 7.322 0 0 0 2.438 2.4c3.529 2.292 8 2.729 12.151 2 6.075-1.055 12.187-5.166 13.17-11.278.91-5.712-2.765-10.95-4.8-16.371a30.318 30.318 0 0 1-1.346-16.953c1.055-5.02 3.42-10.259 1.71-15.1-1.237-3.456-4.293-5.894-7.422-7.785s-6.076-6.257-8.731-8.768a28.594 28.594 0 0 0-10.368-6.694c-2.619-.982-5.566-.618-8.258.146-2.805.839-7.389 1.93-7.862 5.168z" class="cls-24" data-name="Tracé 1361" transform="translate(-578.324 -176.163)"/>
            <path id="Tracé_1362" d="M627.786 328.809l-11.023 17.972-1.237 2.037-2.983 4.875-3.929-2.11-1.746-.909-23.357-12.474-1.71-.91-3.6-1.928 2.437-4.366 1.091-1.928v-.036l11.278-20.232z" class="cls-16" data-name="Tracé 1362" transform="translate(-555.462 -260.546)"/>
            <path id="Tracé_1363" d="M666.9 413.2l-1.237 2.037-6.917 2.763-1.746-.907z" class="cls-25" data-name="Tracé 1363" transform="translate(-605.595 -326.966)"/>
            <path id="Tracé_1364" d="M587.774 373.631l-1.71-.91-1.164-6.294 1.091-1.928z" class="cls-25" data-name="Tracé 1364" transform="translate(-559.725 -295.983)"/>
            <path id="Tracé_1365" d="M609.943 305.815s2.4 3.893 1.128 16.844-16.771 11.533-16.771 11.533a64.134 64.134 0 0 1 1.455 9.386c10.477.255 22.737-9.677 22.737-9.677 9.714-8.913 6.84-31.214 6.84-31.214-7.532-11.897-15.389 3.128-15.389 3.128z" class="cls-6" data-name="Tracé 1365" transform="translate(-565.705 -253.742)"/>
            <path id="Tracé_1366" d="M583.044 400.187l-3.347.109s-9.641 2.146-9.131-3.965 11.423-1.382 11.423-1.382z" class="cls-13" data-name="Tracé 1366" transform="translate(-550.593 -314.243)"/>
            <path id="Tracé_1367" d="M614.543 304.115s2.4 3.893 1.128 16.844-16.771 11.533-16.771 11.533a64.124 64.124 0 0 1 1.455 9.386c10.477.255 22.738-9.677 22.738-9.677 9.714-8.913 6.839-31.214 6.839-31.214-7.494-11.897-15.389 3.128-15.389 3.128z" class="cls-22" data-name="Tracé 1367" transform="translate(-568.632 -252.66)"/>
        </g>
    </g>
</svg>
