<svg xmlns="http://www.w3.org/2000/svg" xmlns:xlink="http://www.w3.org/1999/xlink" width="384" height="289.919" viewBox="0 0 384 289.919">
    <defs>
        <style>
            .cls-1,.cls-2,.cls-6{fill:#f8a557}.cls-1,.cls-13,.cls-27,.cls-9{opacity:.1}.cls-3{fill:#444053}.cls-4,.cls-5{fill:none;stroke:#444053;stroke-miterlimit:10}.cls-5{stroke-width:.75px}.cls-11,.cls-12,.cls-6{opacity:.3}.cls-7{fill:url(#linear-gradient)}.cls-8{fill:#fff}.cls-10,.cls-11,.cls-18,.cls-9{fill:#5a5773}.cls-12{fill:#0883ce}.cls-14{fill:#ffd037}.cls-15{fill:#65617d}.cls-16{fill:#9d9cb5}.cls-17{fill:#e6e8ec}.cls-18{opacity:.2}.cls-19{fill:url(#linear-gradient-2)}.cls-20{fill:#575988}.cls-21,.cls-22{opacity:.05}.cls-23{fill:#ffcdd3}.cls-24{fill:#dce6f2}.cls-25{fill:#656691}.cls-26{fill:#2d293d}
        </style>
        <linearGradient id="linear-gradient" x1=".5" x2=".5" y1=".044" y2="1.044" gradientUnits="objectBoundingBox">
            <stop offset="0" stop-color="gray" stop-opacity=".251"/>
            <stop offset=".54" stop-color="gray" stop-opacity=".122"/>
            <stop offset="1" stop-color="gray" stop-opacity=".102"/>
        </linearGradient>
        <linearGradient id="linear-gradient-2" x1="8.289" x2="8.289" y1="-1.337" y2="-.326" xlink:href="#linear-gradient"/>
    </defs>
    <g id="illu01" transform="translate(-83 -457)">
        <ellipse id="Ellipse_86" cx="33.624" cy="8.297" class="cls-1" data-name="Ellipse 86" rx="33.624" ry="8.297" transform="translate(96.403 730.325)"/>
        <path id="Tracé_789" d="M507.785 84.873s-4.736-1.915-19.751 4.971-16.93 6.013-20.793 4.971S461.2 93.506 457 87.762c0 0-2.956-15.956-5.778-18.408s-14.948 1.411-14.948 1.411-14.511 3.325-17.266-16.056c0 0 1.948-14.612-.705-19.113 0 0 5.374 2.318 14.276-1.444s16.021 4.031 16.021 4.031 2.251 5.811 2.015 9.271 1.176 4.77 5.442 3.09c0 0 2.083-2.956-.873-7.86s-5.072-8.532-4.232-12.328 3.191-9.069 10.816-11.723 17.937-3.158 22.909-5.207S490.822 10 490.822 10s-3.057 3.057 4.132 16.056 2.62 18.609 2.62 18.609-3.829 9.137-20.725 8.4c0 0-16.291.6-7.39 7.491a146.144 146.144 0 0 0 14.175-3.863c8.5-2.721 14.646 8.431 16.157 16.224a19.932 19.932 0 0 0 7.994 11.956z" class="cls-2" data-name="Tracé 789" transform="translate(-194.79 450.391)"/>
        <path id="Tracé_790" d="M594.3 39.234l.1-.034c.638 2.486-6.617 12.429-12.832 20.322l-.067-.067c8.732-11.118 13.299-18.307 12.799-20.221z" class="cls-3" data-name="Tracé 790" transform="translate(-303.171 430.999)"/>
        <path id="Tracé_791" d="M546.736 99.1l.034.1c-4.971 6.315-11.219 13.839-16.224 19.449-.47.537-.941 1.108-1.411 1.646l-.134-.134c.47-.571.94-1.142 1.411-1.68 5.004-5.542 11.352-13.066 16.324-19.381z" class="cls-3" data-name="Tracé 791" transform="translate(-268.306 391.22)"/>
        <path id="Tracé_792" d="M506.555 161.4l.1.168c-9.1 11.354-9.708 29.022-9.741 29.157L495 188.508c0-.135 2.385-15.654 11.555-27.108z" class="cls-3" data-name="Tracé 792" transform="translate(-245.726 349.847)"/>
        <path id="Tracé_793" d="M513.243 140.952s-10.749-5.576-19.079-3.561-27.208-7.088-27.208-7.088-7.995-3.258-9.607-6.953c0 0-5.475-5.811-5.811-8.8S445.893 104 442.4 103.7" class="cls-4" data-name="Tracé 793" transform="translate(-210.795 388.165)"/>
        <path id="Tracé_794" d="M639.166 214.994s-5.408-3.628-4.77-7.894" class="cls-4" data-name="Tracé 794" transform="translate(-338.264 319.498)"/>
        <path id="Tracé_795" d="M607.2 217.306s-7.726-2.822-8.5-13.806" class="cls-4" data-name="Tracé 795" transform="translate(-314.593 321.889)"/>
        <path id="Tracé_796" d="M576.152 219.829A17.312 17.312 0 0 1 571.214 203" class="cls-4" data-name="Tracé 796" transform="translate(-296.009 322.221)"/>
        <path id="Tracé_797" d="M537.628 210.53s-4.938-10.312-.537-17.03" class="cls-4" data-name="Tracé 797" transform="translate(-272.467 328.53)"/>
        <path id="Tracé_798" d="M644.663 194.4s-5.61 1.78-4.4 4.7" class="cls-4" data-name="Tracé 798" transform="translate(-342.081 327.932)"/>
        <path id="Tracé_799" d="M618.459 164.1s-7.491 2.385-7.659 12.966" class="cls-4" data-name="Tracé 799" transform="translate(-322.629 348.054)"/>
        <path id="Tracé_800" d="M590.062 156.9s-6.819 8.4-6.315 16.056" class="cls-4" data-name="Tracé 800" transform="translate(-304.645 352.835)"/>
        <path id="Tracé_801" d="M555.169 166.7s-6.752 6.449-5.912 10.044" class="cls-4" data-name="Tracé 801" transform="translate(-281.71 346.327)"/>
        <path id="Tracé_802" d="M540.622 158.041s-6.349 1.142-7.222-.941" class="cls-4" data-name="Tracé 802" transform="translate(-271.228 352.703)"/>
        <path id="Tracé_803" d="M530.4 137.1s3.191 4.232 4.031 3.292" class="cls-4" data-name="Tracé 803" transform="translate(-269.235 365.984)"/>
        <path id="Tracé_804" d="M586.117 121.861S570.128 123 566.5 118.2" class="cls-4" data-name="Tracé 804" transform="translate(-293.209 378.536)"/>
        <path id="Tracé_805" d="M520.4 73.4s7.491 16.09 12.932 18.139" class="cls-4" data-name="Tracé 805" transform="translate(-262.595 408.287)"/>
        <path id="Tracé_806" d="M543.8 50.6s4.6 14.813 10.312 19.415" class="cls-4" data-name="Tracé 806" transform="translate(-278.134 423.429)"/>
        <path id="Tracé_807" d="M606.549 92.567s-12.16 5.207-19.449-.067" class="cls-5" data-name="Tracé 807" transform="translate(-306.889 395.603)"/>
        <path id="Tracé_808" d="M576 41.2s2.788 10.883 6.517 13.5" class="cls-5" data-name="Tracé 808" transform="translate(-299.518 429.671)"/>
        <path id="Tracé_809" d="M507.886 147.7s0 9.506-2.586 10.178" class="cls-4" data-name="Tracé 809" transform="translate(-252.567 358.945)"/>
        <path id="Tracé_810" d="M450.1 175.6s10.245.873 14.981-4.4" class="cls-4" data-name="Tracé 810" transform="translate(-215.909 343.339)"/>
        <path id="Tracé_811" d="M486.638 114.3s-2.486 9.607-9.338 12.227" class="cls-4" data-name="Tracé 811" transform="translate(-233.972 381.126)"/>
        <path id="Tracé_812" d="M431.8 146.4a13.445 13.445 0 0 0 13.5-3.9" class="cls-4" data-name="Tracé 812" transform="translate(-203.756 362.398)"/>
        <path id="Tracé_813" d="M470.839 89.7s-.672 8.163-5.139 11.992" class="cls-4" data-name="Tracé 813" transform="translate(-226.268 397.463)"/>
        <path id="Tracé_814" d="M432.6 113.215s6.013.034 7.424-1.915" class="cls-4" data-name="Tracé 814" transform="translate(-204.287 383.118)"/>
        <path id="Tracé_815" d="M203.762 46.124c-23.984 4-48 1.847-71.145-1.142S86.43 38.2 62.379 38.936c-15.452.47-32.65 3.527-43.332 12.832C8.768 60.736 7.29 73 7.391 84.082c.067 8.33.84 16.963 6.517 23.681 3.93 4.669 9.909 8.028 14.444 12.328 15.788 14.981 11.32 38.159 1.31 57.809-4.7 9.2-10.447 18.273-13.6 27.712s-3.46 19.617 2.486 27.444c5.878 7.759 17.165 12.227 28.888 14.612 23.816 4.871 50.252 2.351 75.814-1.142 56.567-7.759 112.529-20.322 168.323-32.852 20.658-4.635 41.384-9.3 61.236-16.124 11.018-3.8 22.271-8.532 29.325-16.056 8.969-9.573 9.036-22.741.2-30.735-14.847-13.436-48.1-10.917-59.657-26.2-6.349-8.4-3.762-19.684 1.075-29.627 10.413-21.3 30.8-42.19 27.88-63.621C349.612 16.6 335.37 4.3 316.458.912c-19.818-3.561-45.146 2.385-56.365 17-11.555 15.112-35.169 24.688-56.331 28.212z" class="cls-6" data-name="Tracé 815" transform="translate(78.095 457.094)"/>
        <path id="Tracé_816" d="M80.5 150.2h310.813a4.2 4.2 0 0 1 4.2 4.2v172.419a4.2 4.2 0 0 1-4.2 4.2H80.5a4.2 4.2 0 0 1-4.2-4.2V154.4a4.2 4.2 0 0 1 4.2-4.2z" class="cls-7" data-name="Tracé 816" transform="translate(32.33 357.285)"/>
        <path id="Tracé_817" d="M82 157.8h309.84a4.2 4.2 0 0 1 4.2 4.2v169.3a4.2 4.2 0 0 1-4.2 4.2H82a4.2 4.2 0 0 1-4.2-4.2V162a4.179 4.179 0 0 1 4.2-4.2z" class="cls-8" data-name="Tracé 817" transform="translate(31.334 352.238)"/>
        <path id="Tracé_818" d="M82 157.8h309.84a4.2 4.2 0 0 1 4.2 4.2v169.3a4.2 4.2 0 0 1-4.2 4.2H82a4.2 4.2 0 0 1-4.2-4.2V162a4.179 4.179 0 0 1 4.2-4.2z" class="cls-8" data-name="Tracé 818" transform="translate(31.334 352.238)"/>
        <path id="Tracé_819" d="M82 157.8h309.84a4.2 4.2 0 0 1 4.2 4.2v169.3a4.2 4.2 0 0 1-4.2 4.2H82a4.2 4.2 0 0 1-4.2-4.2V162a4.179 4.179 0 0 1 4.2-4.2z" class="cls-9" data-name="Tracé 819" transform="translate(31.334 352.238)"/>
        <path id="Tracé_820" d="M394.425 151.7H79.412a1.613 1.613 0 0 0-1.612 1.612v6.819h318.238v-6.819a1.613 1.613 0 0 0-1.612-1.612z" class="cls-10" data-name="Tracé 820" transform="translate(31.333 356.289)"/>
        <g id="_x38_3eb5f8b-b68b-4721-b047-6100bc74156f_1_" transform="translate(113.299 510.038)">
            <circle id="Ellipse_87" cx="2.183" cy="2.183" r="2.183" class="cls-8" data-name="Ellipse 87"/>
            <circle id="Ellipse_88" cx="2.183" cy="2.183" r="2.183" class="cls-8" data-name="Ellipse 88" transform="translate(5.878)"/>
            <circle id="Ellipse_89" cx="2.183" cy="2.183" r="2.183" class="cls-8" data-name="Ellipse 89" transform="translate(11.757)"/>
        </g>
        <path id="Tracé_821" d="M144.626 293.9H403.14a3.441 3.441 0 0 1 3.426 3.426v125.092a3.441 3.441 0 0 1-3.426 3.426H144.626a3.441 3.441 0 0 1-3.426-3.426V297.326a3.441 3.441 0 0 1 3.426-3.426z" class="cls-8" data-name="Tracé 821" transform="translate(-10.77 261.855)"/>
        <path id="Tracé_822" d="M109.01 203.5h73.731a1.312 1.312 0 0 1 1.31 1.31v5.408a1.312 1.312 0 0 1-1.31 1.31H109.01a1.312 1.312 0 0 1-1.31-1.31v-5.408a1.312 1.312 0 0 1 1.31-1.31z" class="cls-11" data-name="Tracé 822" transform="translate(11.477 321.889)"/>
        <path id="Tracé_823" d="M537.51 339.5h73.731a1.312 1.312 0 0 1 1.31 1.31v5.408a1.312 1.312 0 0 1-1.31 1.31H537.51a1.312 1.312 0 0 1-1.31-1.31v-5.408a1.312 1.312 0 0 1 1.31-1.31z" class="cls-12" data-name="Tracé 823" transform="translate(-273.087 231.572)"/>
        <path id="Tracé_824" d="M537.51 406.3H654.1a1.312 1.312 0 0 1 1.31 1.31v5.408a1.312 1.312 0 0 1-1.31 1.31H537.51a1.312 1.312 0 0 1-1.31-1.31v-5.408a1.291 1.291 0 0 1 1.31-1.31z" class="cls-12" data-name="Tracé 824" transform="translate(-273.087 187.211)"/>
        <path id="Tracé_825" d="M537.51 445.3H654.1a1.312 1.312 0 0 1 1.31 1.31v5.408a1.312 1.312 0 0 1-1.31 1.31H537.51a1.312 1.312 0 0 1-1.31-1.31v-5.408a1.291 1.291 0 0 1 1.31-1.31z" class="cls-12" data-name="Tracé 825" transform="translate(-273.087 161.311)"/>
        <path id="Tracé_826" d="M537.51 484.3H654.1a1.312 1.312 0 0 1 1.31 1.31v5.408a1.312 1.312 0 0 1-1.31 1.31H537.51a1.312 1.312 0 0 1-1.31-1.31v-5.408a1.291 1.291 0 0 1 1.31-1.31z" class="cls-12" data-name="Tracé 826" transform="translate(-273.087 135.411)"/>
        <path id="Tracé_827" d="M537.51 523.3H654.1a1.312 1.312 0 0 1 1.31 1.31v5.408a1.312 1.312 0 0 1-1.31 1.31H537.51a1.312 1.312 0 0 1-1.31-1.31v-5.408a1.291 1.291 0 0 1 1.31-1.31z" class="cls-12" data-name="Tracé 827" transform="translate(-273.087 109.511)"/>
        <path id="Tracé_828" d="M185.31 566.3h234.9a1.312 1.312 0 0 1 1.31 1.31v5.408a1.312 1.312 0 0 1-1.31 1.31h-234.9a1.312 1.312 0 0 1-1.31-1.31v-5.408a1.334 1.334 0 0 1 1.31-1.31z" class="cls-12" data-name="Tracé 828" transform="translate(-39.193 80.955)"/>
        <path id="Tracé_829" d="M185.31 605.3h234.9a1.312 1.312 0 0 1 1.31 1.31v5.408a1.312 1.312 0 0 1-1.31 1.31h-234.9a1.312 1.312 0 0 1-1.31-1.31v-5.408a1.334 1.334 0 0 1 1.31-1.31z" class="cls-12" data-name="Tracé 829" transform="translate(-39.193 55.056)"/>
        <path id="Tracé_830" d="M185.31 644.3h234.9a1.312 1.312 0 0 1 1.31 1.31v5.408a1.312 1.312 0 0 1-1.31 1.31h-234.9a1.312 1.312 0 0 1-1.31-1.31v-5.408a1.334 1.334 0 0 1 1.31-1.31z" class="cls-12" data-name="Tracé 830" transform="translate(-39.193 29.156)"/>
        <path id="Tracé_831" d="M718.506 660.1s1.982 2.62-.907 6.55-5.307 7.255-4.333 9.708c0 0 4.4-7.289 7.961-7.39s1.21-4.501-2.721-8.868z" class="cls-2" data-name="Tracé 831" transform="translate(-390.53 18.664)"/>
        <path id="Tracé_832" d="M718.675 660.1a3.623 3.623 0 0 1 .4.806c3.493 4.1 5.341 7.927 1.982 8.028-3.124.1-6.886 5.677-7.759 7.088.033.1.067.235.1.336 0 0 4.4-7.289 7.961-7.39s1.241-4.501-2.684-8.868z" class="cls-13" data-name="Tracé 832" transform="translate(-390.698 18.664)"/>
        <path id="Tracé_833" d="M739.37 668.838c0 .907-.1 1.646-.235 1.646s-.235-.739-.235-1.646.134-.47.269-.47.201-.468.201.47z" class="cls-14" data-name="Tracé 833" transform="translate(-407.699 13.251)"/>
        <path id="Tracé_834" d="M740.969 671.953c-.806.437-1.512.705-1.579.6s.537-.571 1.344-1.008.5-.134.537 0 .504-.028-.302.408z" class="cls-14" data-name="Tracé 834" transform="translate(-408.021 11.21)"/>
        <path id="Tracé_835" d="M689.157 660.1s-1.982 2.62.907 6.55 5.307 7.255 4.333 9.708c0 0-4.4-7.289-7.961-7.39s-1.209-4.501 2.721-8.868z" class="cls-2" data-name="Tracé 835" transform="translate(-371.694 18.664)"/>
        <path id="Tracé_836" d="M689.2 660.1a3.615 3.615 0 0 0-.4.806c-3.493 4.1-5.341 7.927-1.982 8.028 3.124.1 6.886 5.677 7.759 7.088-.034.1-.067.235-.1.336 0 0-4.4-7.289-7.961-7.39s-1.241-4.501 2.684-8.868z" class="cls-13" data-name="Tracé 836" transform="translate(-371.742 18.664)"/>
        <path id="Tracé_837" d="M687 668.838c0 .907.1 1.646.235 1.646s.235-.739.235-1.646-.134-.47-.269-.47-.201-.468-.201.47z" class="cls-14" data-name="Tracé 837" transform="translate(-373.233 13.251)"/>
        <path id="Tracé_838" d="M682.273 671.953c.806.437 1.512.705 1.579.6s-.537-.571-1.344-1.008-.5-.134-.537 0-.504-.028.302.408z" class="cls-14" data-name="Tracé 838" transform="translate(-369.782 11.21)"/>
        <ellipse id="Ellipse_90" cx="20.826" cy="3.191" class="cls-1" data-name="Ellipse 90" rx="20.826" ry="3.191" transform="translate(301.876 708.525)"/>
        <path id="Tracé_839" d="M703.224 695.609l-.1.806-.134 1.142-.067.47-.134 1.142-.067.47-.134 1.142-1.579 13.067c-.134 1.176-2.049 2.083-4.367 2.083h-8.263c-2.284 0-4.2-.907-4.333-2.083l-1.612-13.067-.134-1.142-.067-.47-.134-1.142-.067-.47-.134-1.142-.1-.806c-.067-.672.941-1.209 2.251-1.209h16.93c1.271 0 2.313.538 2.245 1.209z" class="cls-15" data-name="Tracé 839" transform="translate(-369.773 -4.115)"/>
        <path id="Tracé_840" d="M703.263 700.4l-.168 1.142h-20.96L682 700.4z" class="cls-16" data-name="Tracé 840" transform="translate(-369.912 -8.1)"/>
        <path id="Tracé_841" d="M703.46 705.2l-.134 1.176h-20.592l-.134-1.176z" class="cls-16" data-name="Tracé 841" transform="translate(-370.31 -11.287)"/>
        <path id="Tracé_842" d="M703.657 710.1l-.134 1.142h-20.189l-.134-1.142z" class="cls-16" data-name="Tracé 842" transform="translate(-370.709 -14.541)"/>
        <path id="Tracé_843" d="M186.955 326.3h95.733a2.853 2.853 0 0 1 2.855 2.855v68.693a2.853 2.853 0 0 1-2.855 2.855h-95.733a2.853 2.853 0 0 1-2.855-2.855v-68.693a2.853 2.853 0 0 1 2.855-2.855z" class="cls-12" data-name="Tracé 843" transform="translate(-39.26 240.338)"/>
        <path id="Tracé_844" d="M983.195 557.2s-1.982 2.419-1.176 3.359 1.176-3.359 1.176-3.359z" class="cls-13" data-name="Tracé 844" transform="translate(-569.025 86.999)"/>
        <circle id="Ellipse_91" cx=".067" cy=".067" r=".067" class="cls-17" data-name="Ellipse 91" transform="translate(397.173 640.47)"/>
        <path id="Tracé_845" d="M2.217 482.7h138.864a2.215 2.215 0 0 1 2.217 2.217v65.5a2.215 2.215 0 0 1-2.217 2.217H2.217A2.215 2.215 0 0 1 0 550.419v-65.5a2.215 2.215 0 0 1 2.217-2.219z" class="cls-8" data-name="Tracé 845" transform="translate(83 136.474)"/>
        <path id="Tracé_846" d="M2.217 482.7h138.864a2.215 2.215 0 0 1 2.217 2.217v65.5a2.215 2.215 0 0 1-2.217 2.217H2.217A2.215 2.215 0 0 1 0 550.419v-65.5a2.215 2.215 0 0 1 2.217-2.219z" class="cls-18" data-name="Tracé 846" transform="translate(83 136.474)"/>
        <path id="Tracé_847" d="M24.017 493.3h124.252a2.215 2.215 0 0 1 2.217 2.217V553.9a2.215 2.215 0 0 1-2.217 2.217H24.017A2.215 2.215 0 0 1 21.8 553.9v-58.383a2.194 2.194 0 0 1 2.217-2.217z" class="cls-8" data-name="Tracé 847" transform="translate(68.523 129.434)"/>
        <path id="Tracé_848" d="M79.515 530.8h84.245a2.021 2.021 0 0 1 2.015 2.015v8.9a2.021 2.021 0 0 1-2.015 2.015H79.515a2.021 2.021 0 0 1-2.015-2.015v-8.9a2.021 2.021 0 0 1 2.015-2.015z" class="cls-2" data-name="Tracé 848" transform="translate(31.533 104.531)"/>
        <path id="Rectangle_122" d="M0 0h81.793v2.654H0z" class="cls-2" data-name="Rectangle 122" transform="translate(112.291 652.999)"/>
        <path id="Rectangle_123" d="M0 0h112.562v2.654H0z" class="cls-2" data-name="Rectangle 123" transform="translate(98.385 658.576)"/>
        <path id="Rectangle_124" d="M0 0h112.562v2.654H0z" class="cls-2" data-name="Rectangle 124" transform="translate(98.385 664.42)"/>
        <path id="Rectangle_125" d="M0 0h112.562v2.654H0z" class="cls-2" data-name="Rectangle 125" transform="translate(98.385 670.299)"/>
        <path id="Tracé_849" d="M104.265 595.3c.4-1.444.672-2.755.672-2.755a5.862 5.862 0 0 1 .739-2.788v-.4l.1-2.956a9.288 9.288 0 0 0-.672-1.579c-.5-.941.168-4.333.168-4.333s2.15-4.736 1.814-7.793 4.568-13.369 4.568-13.369a15.382 15.382 0 0 0-.3-3.023 1.988 1.988 0 0 1-.034-.638v-.034c.134-2.015 1.881-5.71 1.881-5.71l.067-7.188a21.467 21.467 0 0 1 1.008-9.909 68.693 68.693 0 0 0 1.377-4.736l.1-.4c-3.393-.638-5.979-1.176-5.979-1.176s2.284-8.2 3.695-9.573c1.411-1.411 2.62-5.912 2.62-5.912s.907-5.811-.134-7.558a11.685 11.685 0 0 1-1.108-4.7s-2.486-1.948-2.788-2.788a13.344 13.344 0 0 1-.705-3.695c.034-.974.4-1.848.3-2.351s.84-2.452.437-3.393a2.829 2.829 0 0 1-.134-.907v-.034a14.878 14.878 0 0 1 .3-2.419 6.378 6.378 0 0 1 2.586-1.243l.067-.235.168-.571a.675.675 0 0 1 .269-.134l.034-.2.067-.84-.336-1.915c-.672-3.326 3.729-3.628 3.729-3.628a2.183 2.183 0 0 1 1.276-1.041c.907-.269-.034 4.938-.47 5.274a17.1 17.1 0 0 0-1.814 2.62l-.067.134a1.459 1.459 0 0 1 .2.235l-.2 1.142-.034.168a4.178 4.178 0 0 1 .638 1.209 2.493 2.493 0 0 0-.705 1.848 5.644 5.644 0 0 1-.336 2.251 1.364 1.364 0 0 1 1.209-.47c.571.168 2.116.705 2.116.705s1.176.269 1.041.5.739 1.411.739 1.411l3.258-2.855c.034-.1.067-.168.1-.269a9.389 9.389 0 0 0 .336-1.31 6.1 6.1 0 0 1-1.008-.37 2.157 2.157 0 0 1-.84-.6 3.942 3.942 0 0 1-.47-1.377 15.14 15.14 0 0 0-1.075-2.654 8.32 8.32 0 0 1-.437-4.7 3.331 3.331 0 0 1 .537-1.344c.537-.672 1.478-.941 2.183-1.478s1.176-1.377 1.982-1.78a3.72 3.72 0 0 1 2.419-.1 12.528 12.528 0 0 1 4.4 1.78 2.072 2.072 0 0 0 1.478.537 2.1 2.1 0 0 0 1.108-.739v-.044l.034-.034a5.759 5.759 0 0 1 .4 2.385 1.26 1.26 0 0 1-.034.369v.235a.3.3 0 0 0 .034.168 1.906 1.906 0 0 0 .269.437 1.387 1.387 0 0 1 .235.369c0-.034-.034-.1-.034-.134a1.777 1.777 0 0 1 .3 1.008 1.084 1.084 0 0 1-.269.705c-.168.134-.336.269-.537.4a6.088 6.088 0 0 1-3.124 6.147 1.007 1.007 0 0 1-.134.269 7.563 7.563 0 0 0-.705 3.426.74.74 0 0 0 .034.269.228.228 0 0 0 .1.134s5.207.269 6.483-.806 2.99 2.822 2.99 2.822 1.848.437 2.251.1 2.553.034 2.553.034a4.751 4.751 0 0 1 3.292-1.075 9.367 9.367 0 0 1 2.452-1.243l.067-.034a2.317 2.317 0 0 1 1.176-.1 22.969 22.969 0 0 0 3.426-3.124c.773-1.108 4.5-5.173 4.5-5.206l.034-.2.067-.6a.93.93 0 0 0 .3.034l.067-.2a10.131 10.131 0 0 1 .84-1.713s.034-.773-.2-.974.2-3.023.2-3.023 2.519-5.307 4.434-1.209c0 0 3.8 2.754.4 5.677 0 0-1.344.571-1.545 1.075-.134.336-.6 1.209-.941 1.814l-.134.269.034.034-.067.5-.034.2c.6.369 1.008.739.907 1.008a6.569 6.569 0 0 0-.437 1.377s-4.736 5.475-5.442 7.894c0 0-12.462 6.752-16.459 7.121l.537 3.628a28.926 28.926 0 0 1 .034 2.956 39.354 39.354 0 0 0 .3 4.3s.5 5.206 1.041 5.945c.571.739.336 3.829.336 3.829a28.786 28.786 0 0 0 .638 4.434 11.467 11.467 0 0 1 0 4.4s1.847 4.736-2.889 1.377c0 0-2.385-.235-5.106-.437v.269c0 .369 0 .739-.034 1.142-.067 2.654-.2 6.315-.437 9.1-.4 4.9-2.284 14.545-2.284 14.545l-.2 4.871a9.961 9.961 0 0 1 .1 1.411 8.938 8.938 0 0 1-1.512 4.837l-.5 3.258a11.815 11.815 0 0 0-1.008 3.393.93.93 0 0 0 .034.3 2.544 2.544 0 0 1 .034.5 27.149 27.149 0 0 1-1.041 4.971s-.2 3.561-.739 3.762c-.47.168.537 2.083.84 2.62 0-.034.034-.067.034-.1l.067.1a2.829 2.829 0 0 1 .134.907 1.336 1.336 0 0 1-.638 1.243c-1.041.571-1.612 1.075-.739 1.31a9.61 9.61 0 0 1 .941.235l.034-.1a.566.566 0 0 1 .336.638 2.549 2.549 0 0 1-.369 1.209 13.509 13.509 0 0 1-1.545 2.586l-.4-.067a1.811 1.811 0 0 0 .235.437 1.552 1.552 0 0 0 .571.571 1.809 1.809 0 0 0 .705.269 2.059 2.059 0 0 1 1.478.806 1.588 1.588 0 0 1-.269 2.452l-3.863 1.176s-6.584.6-6.181-.84.672-2.754.672-2.754a5.771 5.771 0 0 1 .638-2.586 3.52 3.52 0 0 1 .235-.369l-.235-.034s-.369-3.292-1.008-3.9c-.134-.168-.168-.269-.134-.336-.067-.168.1-.269.336-.336 0 .034.034.1.034.134a4.075 4.075 0 0 1 .638-.034s.269-1.68-.4-2.351a.662.662 0 0 1-.1-.5 2.556 2.556 0 0 1 .1-.705.033.033 0 0 0 .034.034 23.815 23.815 0 0 1 1.68-3.93 4.975 4.975 0 0 0-.3-2.183c-.4-.638.369-8.431.369-8.431a26.386 26.386 0 0 1 .537-5.509 6.346 6.346 0 0 0-.437-3.863v-.134s.034-.235.1-.6v.034c.134-1.008.437-2.788.6-3.628a66.465 66.465 0 0 0 .2-6.886l-.873-2.452-1.881 4.132-2.015 5.509a4.773 4.773 0 0 0-1.008 2.351v.537a3.152 3.152 0 0 1-.638 1.948s-.571 2.62-1.344 3.258a3.061 3.061 0 0 0-.84 1.948 30.18 30.18 0 0 1-1.512 4.434 6.61 6.61 0 0 0-.47 2.587v.134s-.168 1.377-.2 2.519v.37a4.437 4.437 0 0 0 .067.941v-.134a8.087 8.087 0 0 1 .168 2.385 6.2 6.2 0 0 1-1.176 3.93c-1.512 1.612-2.385 1.344-2.385 1.344s.6 2.083 1.444 2.553c.034.034.067.034.1.067a.123.123 0 0 1 .034-.1 1.063 1.063 0 0 1 .235.773 5.528 5.528 0 0 1-1.176 3.023 1.6 1.6 0 0 1-.739.4c.034.034.1.067.134.1a1.194 1.194 0 0 0 .3.134 1.666 1.666 0 0 0 .437.134 2 2 0 0 1 1.478.806 1.588 1.588 0 0 1-.269 2.452l-3.863 1.176c.049-.165-6.568.439-6.165-1.04z" class="cls-19" data-name="Tracé 849" transform="translate(13.77 144.127)"/>
        <path id="Tracé_850" d="M109.341 690.96a9.29 9.29 0 0 1 .672 1.579l-.168 4.065c.974 1.747 6.349 1.377 7.121.47s1.612-3.292.806-3.762-1.411-2.553-1.411-2.553.873.235 2.318-1.344 1.176-5.274.974-6.181a20.381 20.381 0 0 1 .134-3.829 7.679 7.679 0 0 1 .47-2.721 33.828 33.828 0 0 0 1.478-4.434 3 3 0 0 1 .806-1.948c.739-.638 1.31-3.258 1.31-3.258a3.379 3.379 0 0 0 .6-2.183 4.512 4.512 0 0 1 .974-2.654l1.982-5.509 1.814-4.132.84 2.452s.034 5.71-.2 6.886-.672 4.333-.672 4.333a6.631 6.631 0 0 1 .437 3.863 26.386 26.386 0 0 0-.537 5.509s-.773 7.793-.369 8.431a4.8 4.8 0 0 1 .269 2.183s-2.284 4.468-1.646 5.106.369 2.351.369 2.351-1.444-.067-.84.6c.6.638.907 3.9.907 3.9l6.214.974a13.347 13.347 0 0 0 1.512-2.587c.907-1.881-.1-1.713-.907-1.948s-.269-.739.739-1.31.5-2.015.5-2.015-1.411-2.586-.873-2.788c.537-.168.705-3.762.705-3.762s1.209-4.2.974-5.341c-.2-1.142.974-3.829.974-3.829l.47-3.225a8.921 8.921 0 0 0 1.377-6.114l.2-5.005s1.814-9.641 2.251-14.545c.269-3.124.369-7.424.437-10.111.034-1.511.034-2.486.034-2.486l-22.229-3.188a18.186 18.186 0 0 1-.537 3.292c-.269 1.209-.705 2.788-1.344 4.77a22.035 22.035 0 0 0-1.008 9.909l-.067 7.188s-2.15 4.736-1.78 6.382a15.381 15.381 0 0 1 .3 3.023s-4.77 10.312-4.434 13.369-1.747 7.793-1.747 7.793-.703 3.393-.199 4.334z" class="cls-20" data-name="Tracé 850" transform="translate(10.508 38.055)"/>
        <path id="Tracé_851" d="M137.352 728.676L130.6 727.5s3.695 4.1 6.752 1.176z" class="cls-21" data-name="Tracé 851" transform="translate(-3.731 -26.096)"/>
        <path id="Tracé_852" d="M133.371 707.9s-.336 2.385 1.109 3.359c0 0-2.62-.504-1.109-3.359z" class="cls-13" data-name="Tracé 852" transform="translate(-5.259 -13.08)"/>
        <path id="Tracé_853" d="M136.4 685.2s5.509 4.9 7.591 4.6-7.591-4.6-7.591-4.6z" class="cls-13" data-name="Tracé 853" transform="translate(-7.582 1.995)"/>
        <path id="Tracé_854" d="M175.6 738.5s4.266 1.142 4.333 2.889-4.333-2.889-4.333-2.889z" class="cls-13" data-name="Tracé 854" transform="translate(-33.615 -33.402)"/>
        <path id="Tracé_855" d="M168.076 802.5s6.046 1.377 4.3 2.083a29 29 0 0 1-4.636 1.209s-1.982.067.336-3.292z" class="cls-21" data-name="Tracé 855" transform="translate(-27.871 -75.903)"/>
        <g id="Groupe_71" class="cls-22" data-name="Groupe 71" transform="translate(119.672 671.978)">
            <path id="Tracé_856" d="M184.337 810.773a1.278 1.278 0 0 0 .6-.873l.067.1s.5 1.411-.5 2.015c-.1.067-.235.134-.336.2a4.582 4.582 0 0 1-.571-.134c-.839-.199-.268-.703.74-1.308z" data-name="Tracé 856" transform="translate(-158.329 -752.796)"/>
            <path id="Tracé_857" d="M162.975 808.275c-.168-.168-.134-.571 0-1.075a2.915 2.915 0 0 1 .3 1.512 1.277 1.277 0 0 0-.3-.437z" data-name="Tracé 857" transform="translate(-144.828 -751.003)"/>
            <path id="Tracé_858" d="M168.8 734a7.389 7.389 0 0 1 .336 1.915 5.464 5.464 0 0 0-.437-1.31s.035-.236.101-.605z" data-name="Tracé 858" transform="translate(-148.705 -702.391)"/>
            <path id="Tracé_859" d="M127.634 723.171a3.26 3.26 0 0 1-.034-.571c.067.4.1.739.134 1.075-.034-.168-.067-.302-.1-.504z" data-name="Tracé 859" transform="translate(-121.411 -694.821)"/>
            <path id="Tracé_860" d="M167.076 786.442a3.3 3.3 0 0 1-.1-1.142 3.624 3.624 0 0 1 .235 1.444 1.192 1.192 0 0 0-.135-.302z" data-name="Tracé 860" transform="translate(-147.551 -736.459)"/>
            <path id="Tracé_861" d="M161.769 817.5a25.448 25.448 0 0 1 .6 3.191l6.214.974a13.342 13.342 0 0 0 1.512-2.587c.067-.168.134-.3.2-.437.369.168.5.571-.034 1.68a13.344 13.344 0 0 1-1.512 2.586l-6.214-.94s-.336-3.258-.941-3.93c-.294-.302-.094-.437.175-.537z" data-name="Tracé 861" transform="translate(-143.891 -757.843)"/>
            <path id="Tracé_862" d="M186.049 690.622s-.2 3.561-.705 3.762c-.235-.6-.4-1.176-.168-1.243.537-.2.705-3.762.705-3.762s1.209-4.2.974-5.341c-.2-1.142.974-3.829.974-3.829l.5-3.258a8.921 8.921 0 0 0 1.377-6.114l.2-5.005s1.814-9.64 2.217-14.545c.269-3.124.369-7.424.437-10.111 0-.47.034-.907.034-1.276l.168.034s0 1.008-.034 2.486c-.067 2.687-.2 6.987-.437 10.111-.4 4.9-2.217 14.545-2.217 14.545l-.2 5.005a8.921 8.921 0 0 1-1.377 6.113l-.5 3.225s-1.176 2.687-.974 3.829c.236 1.175-.974 5.374-.974 5.374z" data-name="Tracé 862" transform="translate(-159.572 -639.9)"/>
            <path id="Tracé_863" d="M118.087 819.018a5.829 5.829 0 0 0 1.075-2.419c.6.6-.2 2.788-.941 3.661s-6.147 1.276-7.121-.47l.034-.974c1.377 1.445 6.247 1.076 6.953.202z" data-name="Tracé 863" transform="translate(-110.453 -757.245)"/>
            <path id="Tracé_864" d="M109.183 805.5a9.29 9.29 0 0 1 .672 1.579l-.034.739a9.8 9.8 0 0 0-.47-1.041 3.265 3.265 0 0 1-.168-1.277z" data-name="Tracé 864" transform="translate(-109.175 -749.874)"/>
            <path id="Tracé_865" d="M130.67 794.024a13.12 13.12 0 0 1-.47-1.243s.873.235 2.318-1.344c1.075-1.176 1.209-3.426 1.108-4.938.235.907.5 4.568-.974 6.181a4 4 0 0 1-1.982 1.344z" data-name="Tracé 865" transform="translate(-123.137 -737.256)"/>
            <path id="Tracé_866" d="M140.081 719.582a31.763 31.763 0 0 0-.235 3.057 1.942 1.942 0 0 0-.1-.47 17.83 17.83 0 0 1 .134-3.829 7.68 7.68 0 0 1 .47-2.721 35.55 35.55 0 0 0 1.478-4.434 3 3 0 0 1 .806-1.948c.773-.672 1.31-3.258 1.31-3.258a3.379 3.379 0 0 0 .6-2.183 4.512 4.512 0 0 1 .974-2.654l1.982-5.509 1.814-4.132.84 2.452v.773l-.672-2.015-1.814 4.132-1.982 5.509a4.513 4.513 0 0 0-.974 2.654 3.379 3.379 0 0 1-.6 2.183s-.571 2.62-1.31 3.258a3.151 3.151 0 0 0-.806 1.948 33.826 33.826 0 0 1-1.478 4.434 8.573 8.573 0 0 0-.437 2.753z" data-name="Tracé 866" transform="translate(-129.424 -674.167)"/>
        </g>
        <path id="Tracé_867" d="M138.77 482.283l.3 1.915-.067.84-.034.6 2.15.3.269-.437a23.764 23.764 0 0 1 1.78-2.654c.4-.336 1.31-5.542.47-5.274a2.118 2.118 0 0 0-1.243 1.041c-.03.041-4.263.377-3.625 3.669z" class="cls-23" data-name="Tracé 867" transform="translate(-9.113 139.88)"/>
        <path id="Tracé_868" d="M139.5 499.95l2.15.3.269-.437a1.862 1.862 0 0 0-2.351-.47z" class="cls-13" data-name="Tracé 868" transform="translate(-9.641 125.572)"/>
        <path id="Tracé_869" d="M137.8 501.345l2.822.773.067-.437.2-1.142a1.981 1.981 0 0 0-2.721-.5l-.168.571z" class="cls-24" data-name="Tracé 869" transform="translate(-8.512 125.185)"/>
        <path id="Tracé_870" d="M275.3 479.819l2.956 1.747s.134-.235.3-.571c.3-.6.773-1.478.907-1.814.2-.5 1.478-1.075 1.478-1.075 3.292-2.922-.4-5.677-.4-5.677-1.847-4.1-4.3 1.209-4.3 1.209s-.437 2.822-.2 3.023.168.974.168.974a13.383 13.383 0 0 0-.806 1.713 1.974 1.974 0 0 1-.103.471z" class="cls-23" data-name="Tracé 870" transform="translate(-99.825 144.326)"/>
        <path id="Tracé_871" d="M275.3 496.632l2.956 1.747s.134-.235.3-.571c-.4-.37-1.881-1.68-2.385-1.612a2.483 2.483 0 0 1-.705 0c-.099.268-.166.436-.166.436z" class="cls-13" data-name="Tracé 871" transform="translate(-99.825 127.513)"/>
        <path id="Tracé_872" d="M274.3 497.876l3.359 1.814.1-.739.067-.5s-1.915-1.78-2.486-1.713a2.744 2.744 0 0 1-.907-.034l-.067.6z" class="cls-24" data-name="Tracé 872" transform="translate(-99.161 127.176)"/>
        <path id="Tracé_873" d="M162 507.386s14.813 2.251 12.059 1.243a3.758 3.758 0 0 1-2.759-3.329 8 8 0 0 1 .672-3.426 15.278 15.278 0 0 1 1.444-2.62s-11.118-6.684-9.07-.907a9.32 9.32 0 0 1 .537 2.721 7.543 7.543 0 0 1-.4 2.721 8.288 8.288 0 0 1-2.483 3.597z" class="cls-23" data-name="Tracé 873" transform="translate(-24.583 127.643)"/>
        <path id="Tracé_874" d="M168.6 498.252a9.32 9.32 0 0 1 .537 2.721c1.041.941 2.217.941 3.729.974 1.142.034 2.419.369 3.359-.134a15.277 15.277 0 0 1 1.444-2.62c-.033-.034-11.118-6.719-9.069-.941z" class="cls-13" data-name="Tracé 874" transform="translate(-28.799 127.707)"/>
        <circle id="Ellipse_92" cx="6.147" cy="6.147" r="6.147" class="cls-23" data-name="Ellipse 92" transform="translate(138.324 617.763)"/>
        <path id="Tracé_875" d="M162 521.631s14.813 2.251 12.059 1.243a3.758 3.758 0 0 1-2.754-3.325 7.957 7.957 0 0 0-3.124-1.814 4.338 4.338 0 0 0-2.687-.134 3.394 3.394 0 0 0-1.008.437 8.016 8.016 0 0 1-2.486 3.593z" class="cls-13" data-name="Tracé 875" transform="translate(-24.583 113.397)"/>
        <path id="Tracé_876" d="M137.8 503.075l2.822.773.067-.437a2.547 2.547 0 0 0-2.689-1.042z" class="cls-13" data-name="Tracé 876" transform="translate(-8.512 123.455)"/>
        <path id="Tracé_877" d="M274.3 499.071l3.359 1.814.1-.739a24.31 24.31 0 0 0-3.393-1.646z" class="cls-13" data-name="Tracé 877" transform="translate(-99.161 125.981)"/>
        <path id="Tracé_878" d="M140.2 634.192c5.71 1.142 13.873 2.62 15.183 2.284a41.018 41.018 0 0 1 7.524.1c.034-1.512.034-2.486.034-2.486L140.7 630.9a15.611 15.611 0 0 1-.5 3.292z" class="cls-13" data-name="Tracé 878" transform="translate(-10.106 38.055)"/>
        <path id="Tracé_879" d="M123.3 545.086s18.844 4 20.893 3.46 12.462.537 12.462.537c4.568 3.325 2.788-1.377 2.788-1.377a11.467 11.467 0 0 0 0-4.4 24.294 24.294 0 0 1-.6-4.434s.235-3.09-.3-3.829-1.008-5.945-1.008-5.945-.37-3.527-.3-4.3-.034-2.956-.034-2.956l-.537-3.628c3.9-.369 15.956-7.155 15.956-7.155.672-2.418 5.274-7.927 5.274-7.927a6.486 6.486 0 0 1 .4-1.377c.336-.806-4.232-2.654-4.232-2.654s-3.628 4.1-4.367 5.207a22 22 0 0 1-3.325 3.124 2.219 2.219 0 0 0-1.142.1h-.067a8.76 8.76 0 0 0-2.351 1.243 4.4 4.4 0 0 0-3.191 1.075s-2.116-.4-2.486-.034c-.369.336-2.183-.1-2.183-.1s-1.68-3.9-2.889-2.822-6.281.806-6.281.806a7.566 7.566 0 0 0-3.258-1.982 4.234 4.234 0 0 0-3.762.336l-3.158 2.889s-.84-1.176-.705-1.411c.1-.269-1.008-.5-1.008-.5s-1.478-.537-2.049-.705a1.22 1.22 0 0 0-1.142.47 5.735 5.735 0 0 0 .336-2.251 2.571 2.571 0 0 1 .705-1.847c-1.646-4.5-5.845-.941-5.845-.941s-.571 2.419-.168 3.359-.537 2.889-.437 3.393-.269 1.377-.3 2.351a14.68 14.68 0 0 0 .672 3.695c.269.84 2.687 2.788 2.687 2.788a11.412 11.412 0 0 0 1.075 4.7c1.041 1.747.134 7.558.134 7.558s-1.209 4.5-2.553 5.912c-1.453 1.375-3.704 9.572-3.704 9.572z" class="cls-25" data-name="Tracé 879" transform="translate(1.117 125.582)"/>
        <path id="Tracé_880" d="M209.3 531.957s.638-1.679 1.142-1.814a10.123 10.123 0 0 0 1.512-.6l-.3-.638s-1.948.47-2.284 1.008a4.292 4.292 0 0 0-.07 2.044z" class="cls-13" data-name="Tracé 880" transform="translate(-55.926 105.793)"/>
        <path id="Tracé_881" d="M240.8 525.543c.1.5 4.669 1.176 4.669 1.176l-2.217-2.418h-.067a7.687 7.687 0 0 0-2.385 1.242z" class="cls-13" data-name="Tracé 881" transform="translate(-76.914 108.847)"/>
        <circle id="Ellipse_93" cx=".403" cy=".403" r=".403" class="cls-20" data-name="Ellipse 93" transform="translate(177.054 627.403)"/>
        <circle id="Ellipse_94" cx=".403" cy=".403" r=".403" class="cls-20" data-name="Ellipse 94" transform="translate(176.483 628.21)"/>
        <path id="Tracé_882" d="M277.1 511.8a.408.408 0 0 1 .4.4.4.4 0 1 1-.806 0 .408.408 0 0 1 .406-.4z" class="cls-20" data-name="Tracé 882" transform="translate(-100.755 117.148)"/>
        <circle id="Ellipse_95" cx=".403" cy=".403" r=".403" class="cls-20" data-name="Ellipse 95" transform="translate(175.374 629.755)"/>
        <circle id="Ellipse_96" cx=".336" cy=".336" r=".336" class="cls-20" data-name="Ellipse 96" transform="translate(126.769 627.907)"/>
        <circle id="Ellipse_97" cx=".336" cy=".336" r=".336" class="cls-20" data-name="Ellipse 97" transform="translate(126.668 628.68)"/>
        <circle id="Ellipse_98" cx=".336" cy=".336" r=".336" class="cls-20" data-name="Ellipse 98" transform="translate(126.601 629.419)"/>
        <path id="Tracé_883" d="M166.56 579.7c.034-.067-12.16 14.209-20.86 5.341-.034-.001 14.175 2.485 20.86-5.341z" class="cls-13" data-name="Tracé 883" transform="translate(-13.758 72.057)"/>
        <path id="Tracé_884" d="M211.26 603.2s-6.987-.067-7.793 1.915l-.067 2.085a1.392 1.392 0 0 0 1.31.067c.705-.336 5-2.318 6.449-1.243z" class="cls-13" data-name="Tracé 884" transform="translate(-52.077 56.451)"/>
        <path id="Tracé_885" d="M211.591 603.2s-6.685-.067-7.424 1.814L204.1 607a1.26 1.26 0 0 0 1.243.034c.672-.336 4.8-2.217 6.181-1.176z" class="cls-25" data-name="Tracé 885" transform="translate(-52.542 56.451)"/>
        <path id="Tracé_886" d="M202.789 557.7a23.025 23.025 0 0 1-2.889 4.535 18.2 18.2 0 0 1-4.4 3.93c.034 0 7.155-7.524 7.289-8.465z" class="cls-13" data-name="Tracé 886" transform="translate(-46.83 86.667)"/>
        <path id="Tracé_887" d="M216.2 533.9s-1.344 4.971-4.4 6.55z" class="cls-13" data-name="Tracé 887" transform="translate(-57.655 102.472)"/>
        <path id="Tracé_888" d="M222.1 535.6c.034-.1.873 4-4.1 6.08 0-.004 2.083-.642 4.1-6.08z" class="cls-13" data-name="Tracé 888" transform="translate(-61.772 101.347)"/>
        <path id="Tracé_889" d="M133.691 522.083a34.9 34.9 0 0 0-3.191 2.217c.034 0 1.713-2.385 3.191-2.217z" class="cls-13" data-name="Tracé 889" transform="translate(-3.664 110.325)"/>
        <path id="Tracé_890" d="M168.509 485.874a1.29 1.29 0 0 1-.5.806 1.57 1.57 0 0 1-.571.1 12.356 12.356 0 0 1-5.542-.739 2.435 2.435 0 0 1-.84-.6 3.316 3.316 0 0 1-.437-1.377 18.136 18.136 0 0 0-1.041-2.654 8.984 8.984 0 0 1-.437-4.7 2.915 2.915 0 0 1 .537-1.344c.537-.672 1.444-.94 2.116-1.478s1.142-1.377 1.915-1.78a3.424 3.424 0 0 1 2.318-.1 13.229 13.229 0 0 1 4.266 1.78 1.994 1.994 0 0 0 1.444.538 2.16 2.16 0 0 0 1.109-.773 5.635 5.635 0 0 1 .37 2.687.819.819 0 0 0 0 .4 1.185 1.185 0 0 0 .269.437 1.592 1.592 0 0 1 .235 1.948c-.2.235-.537.336-.705.571-.369.4-.269 1.041-.3 1.612a.791.791 0 0 1-.168.538.9.9 0 0 1-.773.168 1.675 1.675 0 0 0-.806-.1 1.207 1.207 0 0 0-.705.5 9.294 9.294 0 0 0-1.754 3.56z" class="cls-26" data-name="Tracé 890" transform="translate(-22.593 143.679)"/>
        <g id="Groupe_72" class="cls-27" data-name="Groupe 72" transform="translate(138.223 617.125)">
            <path id="Tracé_891" d="M164.467 495.692a2.317 2.317 0 0 0 .806.6 12.844 12.844 0 0 0 5.542.739 1.569 1.569 0 0 0 .571-.1 1.289 1.289 0 0 0 .5-.806 9.608 9.608 0 0 1 1.713-3.594 1.32 1.32 0 0 1 .705-.5 3.312 3.312 0 0 1 .806.1.731.731 0 0 0 .773-.168 1.015 1.015 0 0 0 .168-.538 2.383 2.383 0 0 1 .3-1.612c.2-.235.5-.336.705-.571a1.258 1.258 0 0 0 .168-1.243 1.414 1.414 0 0 1 .034 1.646c-.2.235-.5.336-.705.571-.369.4-.269 1.041-.269 1.612a.79.79 0 0 1-.168.537.9.9 0 0 1-.773.168 1.675 1.675 0 0 0-.806-.1 1.621 1.621 0 0 0-.739.5 10 10 0 0 0-1.713 3.561 1 1 0 0 1-1.008.941h-.067a12.354 12.354 0 0 1-5.542-.739 2.434 2.434 0 0 1-.84-.6 1.7 1.7 0 0 1-.235-.5c.007.063.041.063.074.096z" data-name="Tracé 891" transform="translate(-164.4 -484.171)"/>
            <path id="Tracé_892" d="M200.469 479.623a1.051 1.051 0 0 1-.168-.336.818.818 0 0 1 0-.4 6.408 6.408 0 0 0-.2-2.251l.034-.034a5.635 5.635 0 0 1 .37 2.687 1.26 1.26 0 0 0-.036.334z" data-name="Tracé 892" transform="translate(-188.108 -476.6)"/>
        </g>
        <path id="Tracé_893" d="M173.564 523.87s-7.726.739-8.364-.47" class="cls-13" data-name="Tracé 893" transform="translate(-26.708 109.445)"/>
        <path id="Tracé_894" d="M135.674 513.59s-4.266-.168-5.274 1.411" class="cls-13" data-name="Tracé 894" transform="translate(-3.598 115.963)"/>
    </g>
</svg>
