<svg xmlns="http://www.w3.org/2000/svg" width="28" height="27.086" viewBox="0 0 28 27.086">
    <defs>
        <style>
            .cls-1{fill:#0976b4;fill-rule:evenodd}
        </style>
    </defs>
    <path id="linkedin" d="M21.765 27.092v-9.854c0-2.021-.575-4.044-2.919-4.044s-3.323 2.023-3.323 4.093v9.805H9.27V9.048h6.253v2.43c1.645-2.123 3.075-3 5.667-3S28 9.708 28 16.834v10.258zM3.492 6.373A3.346 3.346 0 0 1 0 3.192 3.349 3.349 0 0 1 3.492.006a3.349 3.349 0 0 1 3.491 3.186 3.347 3.347 0 0 1-3.491 3.181zm3.12 20.719H.35V9.048h6.262z" class="cls-1" transform="translate(0 -.006)"/>
</svg>
