<svg xmlns="http://www.w3.org/2000/svg" width="28" height="22.75" viewBox="0 0 28 22.75">
    <defs>
        <style>
            .cls-1{fill:#55acee;fill-rule:evenodd}
        </style>
    </defs>
    <path id="twitter" d="M28 2.734a10.106 10.106 0 0 1-3.2.909A6.136 6.136 0 0 0 27.2.5a9.336 9.336 0 0 1-3.6 1.278 5.775 5.775 0 0 0-9.8 5.287A16 16 0 0 1 1.886 1.071 5.78 5.78 0 0 0 3.637 8.7a3.715 3.715 0 0 1-2.523-.654 5.568 5.568 0 0 0 4.456 5.645 4.571 4.571 0 0 1-2.405.183c.184 1.7 2.563 3.92 5.163 3.92A10.273 10.273 0 0 1 0 20.2a17.351 17.351 0 0 0 9.036 2.55A16.048 16.048 0 0 0 25.2 5.88v-.031-.073-.085A9.975 9.975 0 0 0 28 2.734z" class="cls-1"/>
</svg>
